<?xml version="1.0" standalone="no"?>
<!DOCTYPE svg PUBLIC "-//W3C//DTD SVG 1.1//EN" "http://www.w3.org/Graphics/SVG/1.1/DTD/svg11.dtd" >
<svg xmlns="http://www.w3.org/2000/svg" xmlns:xlink="http://www.w3.org/1999/xlink" version="1.1">
<metadata>
Created by FontForge 20160405 at Thu Nov  9 15:13:00 2017
 By Apache
(c), 2000, Dalton Maag Ltd, BMW Group. All rights reserved.
</metadata>
<defs>
<font id="BMWTypeCondensedRegular-Bold" horiz-adv-x="1100" >
  <font-face 
    font-family="BMWTypeCondensedRegular"
    font-weight="700"
    font-stretch="normal"
    units-per-em="2048"
    panose-1="2 11 8 6 2 2 2 2 2 4"
    ascent="1638"
    descent="-410"
    x-height="1081"
    cap-height="1544"
    bbox="-332 -438 2560 2104"
    underline-thickness="20"
    underline-position="-143"
    unicode-range="U+0020-FB02"
  />
<missing-glyph horiz-adv-x="2048" 
 />
    <glyph glyph-name=".notdef" horiz-adv-x="2048" 
 />
    <glyph glyph-name=".null" horiz-adv-x="0" 
 />
    <glyph glyph-name="nonmarkingreturn" horiz-adv-x="1024" 
 />
    <glyph glyph-name="space" unicode=" " horiz-adv-x="332" 
 />
    <glyph glyph-name="exclam" unicode="!" horiz-adv-x="637" 
d="M174 0v338h287v-338h-287zM199 528l-25 676v340h289v-340l-27 -676h-237z" />
    <glyph glyph-name="quotedbl" unicode="&#x22;" horiz-adv-x="981" 
d="M199 819l-60 508v217h285v-217l-59 -508h-166zM618 819l-59 508v217h285v-217l-60 -508h-166z" />
    <glyph glyph-name="numbersign" unicode="#" horiz-adv-x="1153" 
d="M121 0l78 379h-144v205h185l61 295h-141v204h182l78 377h209l-78 -377h197l77 377h207l-78 -377h142v-204h-185l-59 -295h139v-205h-182l-78 -379h-207l78 379h-196l-78 -379h-207zM449 584h196l60 295h-197z" />
    <glyph glyph-name="dollar" unicode="$" horiz-adv-x="1186" 
d="M524 -190v161q-98 7 -174 35.5t-133.5 83.5t-96.5 138t-61 200l267 53q16 -103 42.5 -160t66.5 -82.5t89 -33.5v467l-69 26q-66 25 -129.5 55t-114 77t-81 118t-30.5 178q0 108 33 189t90.5 136t135 85t165.5 37v129h138v-131q127 -13 214.5 -67.5t133.5 -143.5t69 -189
l-254 -69q-15 70 -36 114.5t-56 75.5t-71 43v-434l71 -27q115 -43 180.5 -82.5t100.5 -86.5q38 -53 58 -120t20 -155q0 -95 -26.5 -175t-80.5 -140t-134.5 -97.5t-188.5 -46.5v-161h-138zM662 207q78 18 115.5 72.5t37.5 130.5q0 49 -20 94t-56.5 75.5t-76.5 47.5v-420z
M524 942v399q-83 -14 -117 -65t-34 -129q0 -54 19.5 -96t54 -68t77.5 -41z" />
    <glyph glyph-name="percent" unicode="%" horiz-adv-x="1810" 
d="M475 -37l653 1534h207l-651 -1534h-209zM1407 -37q-89 0 -153.5 31.5t-106.5 91t-62 146t-20 196.5q0 108 20 194t62 145t106.5 90.5t153.5 31.5q132 0 211.5 -67.5t105 -176.5t25.5 -217q0 -172 -45.5 -278.5t-125.5 -146.5t-171 -40zM1407 154q49 0 77.5 32.5t40 97
t11.5 142.5q0 77 -8.5 129t-25 84t-40.5 45.5t-55 13.5q-48 0 -78 -35t-39.5 -97.5t-9.5 -139.5q0 -78 8.5 -130t25 -83.5t40 -45t53.5 -13.5zM403 571q-89 0 -153.5 31.5t-106.5 91t-62 145.5t-20 195t20 195t62 145.5t106.5 91t153.5 31.5q133 0 212 -68.5t104.5 -177
t25.5 -217.5t-19.5 -195t-61 -145.5t-106 -91t-155.5 -31.5zM403 762q49 0 78 33t40 96.5t11 140.5q0 111 -18.5 175t-49 82t-61.5 18q-30 0 -53.5 -14t-40 -46t-25 -84.5t-8.5 -130.5q0 -77 8.5 -128.5t25 -83t40 -45t53.5 -13.5z" />
    <glyph glyph-name="ampersand" unicode="&#x26;" horiz-adv-x="1171" 
d="M459 -37q-90 0 -167.5 32.5t-134.5 92.5t-89.5 144t-32.5 186q0 85 21 153.5t57 123t83.5 97.5t100.5 78q-18 26 -39 62.5t-39 80.5t-30.5 95t-12.5 106q0 111 55.5 195.5t141.5 120t172 35.5q120 0 206 -54.5t120 -136t34 -155.5q0 -65 -19.5 -123.5t-49.5 -99
t-52 -64.5q-34 -37 -71.5 -67t-77.5 -58l205 -305q73 120 121 223l198 -100q-29 -71 -77.5 -156.5t-108.5 -169.5l201 -299h-306l-65 102q-64 -56 -123.5 -86.5t-114 -41.5t-106.5 -11zM485 201q67 0 112.5 25.5t80.5 62.5l-252 385q-54 -43 -82.5 -84.5t-38.5 -84
t-10 -83.5q0 -49 13.5 -89.5t38.5 -70t60 -45.5t78 -16zM512 989l39 25q49 34 76.5 72t36 73.5t8.5 59.5q0 44 -18.5 79t-51 50.5t-63.5 15.5q-59 0 -94 -38.5t-35 -100.5q0 -40 18 -89t41 -84.5t43 -62.5z" />
    <glyph glyph-name="quotesingle" unicode="'" horiz-adv-x="561" 
d="M197 819l-60 508v217h285v-217l-60 -508h-165z" />
    <glyph glyph-name="parenleft" unicode="(" horiz-adv-x="676" 
d="M461 -422q-74 76 -143.5 175t-123 223.5t-86 274.5t-32.5 329q0 177 32.5 327t86 274t123 223t143.5 175l178 -135q-74 -92 -141 -247t-99 -317.5t-32 -299.5q0 -138 26 -270t65.5 -246t87.5 -204.5t93 -146.5z" />
    <glyph glyph-name="parenright" unicode=")" horiz-adv-x="676" 
d="M215 -422l-178 135q73 92 140 247t99.5 318.5t32.5 301.5q0 137 -26 268t-65.5 245t-87.5 204.5t-93 146.5l178 135q74 -76 143.5 -175t123 -223t86 -274t32.5 -327q0 -248 -66.5 -458.5t-155.5 -338.5t-163 -205z" />
    <glyph glyph-name="asterisk" unicode="*" horiz-adv-x="999" 
d="M399 709l4 262l-204 -125l-97 166l209 114l-209 115l97 166l204 -125l-4 262h201l-4 -262l205 125l96 -166l-209 -115l209 -114l-96 -166l-205 125l4 -262h-201z" />
    <glyph glyph-name="plus" unicode="+" 
d="M416 178v430h-320v246h320v430h266v-430h319v-246h-319v-430h-266z" />
    <glyph glyph-name="comma" unicode="," horiz-adv-x="561" 
d="M215 -438l-106 102q46 47 79 98.5t48.5 106t15.5 102.5v29h-115v338h287v-320q0 -112 -36.5 -207.5t-85.5 -155.5t-87 -93z" />
    <glyph glyph-name="hyphen" unicode="-" horiz-adv-x="772" 
d="M102 408v272h568v-272h-568z" />
    <glyph glyph-name="hyphen" unicode="&#xad;" horiz-adv-x="772" 
d="M102 408v272h568v-272h-568z" />
    <glyph glyph-name="period" unicode="." horiz-adv-x="561" 
d="M137 0v338h287v-338h-287z" />
    <glyph glyph-name="slash" unicode="/" horiz-adv-x="559" 
d="M0 0l324 1544h235l-326 -1544h-233z" />
    <glyph glyph-name="zero" unicode="0" 
d="M549 -31q-128 0 -218 52.5t-146.5 153.5t-82.5 248t-26 335q0 187 26 333.5t82.5 247t146.5 153t218 52.5t218.5 -52.5t147.5 -153t83 -247t26 -333.5q0 -188 -26 -335t-83 -248t-147.5 -153.5t-218.5 -52.5zM549 213q69 0 110 68t53.5 198t12.5 279q0 224 -23.5 346
t-65 159t-87.5 37q-71 0 -110.5 -69t-51.5 -197t-12 -276q0 -149 10 -253t31 -169t54 -94t79 -29z" />
    <glyph glyph-name="one" unicode="1" 
d="M475 0v1169q-90 -65 -147.5 -102.5t-100.5 -58.5l-114 204q62 36 142 92t149 114t108 95h248v-1513h-285z" />
    <glyph glyph-name="two" unicode="2" 
d="M84 0v70q0 109 39 211t100 184t116.5 136t102.5 95q91 78 149 145.5t84.5 134t26.5 122.5q0 112 -41.5 160.5t-119.5 48.5q-70 0 -112 -51.5t-56 -120.5t-19 -127l-276 22q12 123 46.5 218.5t93.5 161.5t144 100t199 34q160 0 263.5 -68t140 -174.5t36.5 -209.5
q0 -117 -43.5 -216t-100.5 -160t-97 -100q-204 -187 -230 -213q-34 -35 -61.5 -72.5t-42.5 -74.5h563v-256h-905z" />
    <glyph glyph-name="three" unicode="3" 
d="M528 -31q-94 0 -166.5 22.5t-125.5 61t-88.5 89t-57 107t-30.5 115.5t-9 113l285 23q1 -69 11 -123.5t32.5 -92t58 -57.5t86.5 -20q87 0 136 55.5t49 163.5q0 86 -31 139t-88.5 71.5t-124.5 18.5v240q69 1 113.5 21t71 52.5t36.5 73t10 84.5q0 64 -22.5 108.5t-61 62.5
t-77.5 18q-74 0 -117 -45t-54 -100.5t-12 -100.5l-278 23q7 100 39 183t90.5 143t144.5 93t203 33q178 0 281 -71.5t132 -165.5t29 -168q0 -97 -36.5 -174t-92.5 -123t-110 -68q124 -23 189 -113t65 -245q0 -90 -27 -171t-85 -142.5t-149 -97.5t-219 -36z" />
    <glyph glyph-name="four" unicode="4" 
d="M618 0v330h-561v266l551 917h287v-956h123v-227h-123v-330h-277zM276 557h342v580z" />
    <glyph glyph-name="five" unicode="5" 
d="M532 -31q-83 0 -147 18t-112 48.5t-82 71.5t-57.5 86.5t-38.5 93t-25 92.5l272 61q9 -80 34 -135.5t64.5 -77.5t83.5 -22q92 0 137.5 81t45.5 224q0 84 -17.5 148t-48.5 96q-23 23 -49.5 35t-71.5 12q-62 0 -105 -39.5t-65 -104.5l-233 35l127 821h719v-243h-525
l-53 -340q41 41 99 65.5t147 24.5q63 0 127 -22t116 -76q45 -50 73 -110t41 -137t13 -155q0 -122 -28.5 -223.5t-86.5 -174t-146.5 -113t-207.5 -40.5z" />
    <glyph glyph-name="six" unicode="6" 
d="M567 -31q-103 0 -192 36t-155 120.5t-104 225t-38 349.5q0 198 30.5 355t94 265.5t161.5 166t234 57.5q116 0 203 -39.5t134.5 -116t65.5 -169.5l-268 -62q-6 37 -18 67t-31 52q-19 20 -44 29.5t-54 9.5t-56 -10.5t-53 -38.5q-42 -47 -64 -141.5t-28 -239.5
q40 49 105.5 82.5t166.5 33.5q136 0 225 -83t117.5 -196t28.5 -208q0 -158 -41 -263t-107 -167.5t-148.5 -88.5t-164.5 -26zM559 184q66 0 108.5 44t58 113t15.5 134q0 67 -11.5 123t-34 96.5t-57 63t-79.5 22.5q-46 0 -80.5 -22.5t-57.5 -63t-34.5 -96.5t-11.5 -123
q0 -103 27 -172t69 -94t88 -25z" />
    <glyph glyph-name="seven" unicode="7" 
d="M213 0q19 162 64.5 328.5t110.5 327t147.5 310.5t175.5 279h-607v268h887v-247q-99 -146 -175.5 -301t-134.5 -315t-98 -323.5t-65 -326.5h-305z" />
    <glyph glyph-name="eight" unicode="8" 
d="M549 -31q-126 0 -218.5 35.5t-153.5 97t-90.5 143.5t-29.5 175q0 87 28.5 163.5t76 126t100.5 81.5q-45 28 -76.5 64.5t-52 78.5t-30 87.5t-9.5 92.5q0 89 27 167.5t83 137t142 92t203 33.5q169 0 278 -71t144 -170.5t35 -188.5q0 -74 -23 -140.5t-62 -110.5t-83 -72
q78 -48 125.5 -114.5t63 -134t15.5 -122.5q0 -93 -29.5 -175t-90.5 -143.5t-153.5 -97t-219.5 -35.5zM549 199q90 0 141 63t51 172q0 83 -29 140t-73.5 80.5t-89.5 23.5q-66 0 -112.5 -39t-62.5 -94.5t-16 -110.5q0 -109 51.5 -172t139.5 -63zM551 877q85 0 131.5 60
t46.5 165q0 106 -46.5 165.5t-131.5 59.5q-87 0 -133.5 -59.5t-46.5 -165.5q0 -105 46.5 -165t133.5 -60z" />
    <glyph glyph-name="nine" unicode="9" 
d="M506 -31q-72 0 -139 17.5t-122 56.5t-93.5 101.5t-53.5 152.5l267 59q6 -35 18 -65.5t31 -50.5q36 -41 96 -41q28 0 56.5 10.5t54.5 38.5q40 43 66 139t26 242q-41 -50 -106.5 -83.5t-166.5 -33.5q-97 0 -167 40.5t-115 108t-66.5 155.5t-21.5 183q0 158 41 263
t108 167.5t151.5 88.5t170.5 26q99 0 186 -36t152.5 -120.5t103 -225t37.5 -349.5q0 -201 -29.5 -358t-92 -265t-159.5 -164.5t-233 -56.5zM539 733q66 0 109.5 46.5t59 118t15.5 138.5q0 97 -25.5 166.5t-69.5 98t-89 28.5q-68 0 -112 -48t-57.5 -114t-13.5 -131
q0 -67 11.5 -122.5t34.5 -95.5t57.5 -62.5t79.5 -22.5z" />
    <glyph glyph-name="colon" unicode=":" horiz-adv-x="561" 
d="M137 0v338h287v-338h-287zM137 743v338h287v-338h-287z" />
    <glyph glyph-name="semicolon" unicode=";" horiz-adv-x="561" 
d="M215 -438l-106 102q46 47 79 98.5t48.5 106t15.5 102.5v29h-115v338h287v-320q0 -112 -36.5 -207.5t-85.5 -155.5t-87 -93zM137 743v338h287v-338h-287z" />
    <glyph glyph-name="semicolon" unicode="&#x37e;" horiz-adv-x="561" 
d="M215 -438l-106 102q46 47 79 98.5t48.5 106t15.5 102.5v29h-115v338h287v-320q0 -112 -36.5 -207.5t-85.5 -155.5t-87 -93zM137 743v338h287v-338h-287z" />
    <glyph glyph-name="less" unicode="&#x3c;" 
d="M1001 178l-903 420v266l903 420v-266l-630 -287l630 -287v-266z" />
    <glyph glyph-name="equal" unicode="=" 
d="M96 379v254h905v-254h-905zM96 829v254h905v-254h-905z" />
    <glyph glyph-name="greater" unicode="&#x3e;" 
d="M98 178v266l631 287l-631 287v266l903 -420v-266z" />
    <glyph glyph-name="question" unicode="?" horiz-adv-x="1018" 
d="M332 0v328h268v-328h-268zM342 494v147q0 59 22 103t74 94q42 40 78 74t62.5 69t41.5 75.5t15 94.5q0 93 -33.5 144t-112.5 51q-46 0 -76.5 -23t-49.5 -59.5t-28.5 -83t-12.5 -93.5l-269 39q12 103 43 187t85.5 143.5t134.5 92t188 32.5q156 0 254.5 -65t131 -159.5
t32.5 -178.5q0 -89 -20 -155.5t-49.5 -107t-53.5 -67.5q-55 -57 -127 -119q-19 -16 -34.5 -30.5t-26 -32.5t-16 -41t-5.5 -56v-75h-248z" />
    <glyph glyph-name="at" unicode="@" horiz-adv-x="1802" 
d="M899 -53q-193 0 -343 61.5t-253 171t-157 261t-54 331.5q0 186 64 340t180 266q123 118 270.5 168.5t315.5 50.5q182 0 328 -58.5t248 -159t157 -234t55 -283.5q0 -133 -37.5 -234t-102 -169t-150.5 -102.5t-183 -34.5q-42 0 -74 5t-55.5 14t-40.5 21t-29 27
q-14 17 -24.5 40t-14.5 54q-59 -62 -104 -96t-94 -47.5t-99 -13.5q-65 0 -114 24.5t-82 67.5t-49.5 101t-16.5 126q0 87 22.5 177.5t60 159t75.5 110.5q53 58 121 91.5t151 33.5q88 0 139.5 -30t77.5 -75l17 76h227l-114 -524q-9 -36 -9 -84q0 -36 17.5 -60t62.5 -24
q81 0 137 54t77.5 140.5t21.5 173.5q0 117 -46.5 224.5t-133.5 186.5t-204.5 115.5t-240.5 36.5q-131 0 -243 -46t-195 -130q-87 -86 -136 -209t-49 -272q0 -155 43 -276t123.5 -205t196 -128t260.5 -44q92 0 189.5 22t177.5 58l61 -158q-106 -45 -209 -68.5t-219 -23.5z
M799 512q67 0 115.5 48.5t70.5 108t31 103.5q12 62 12 98q0 83 -37 121q-15 17 -37.5 27t-50.5 10q-35 0 -66.5 -16.5t-56.5 -44.5q-32 -34 -54 -83.5t-36 -115.5q-10 -44 -10 -94q0 -78 29.5 -120t89.5 -42z" />
    <glyph glyph-name="A" unicode="A" horiz-adv-x="1192" 
d="M0 0l408 1544h378l406 -1544h-293l-82 328h-463l-80 -328h-274zM414 567h344l-172 695z" />
    <glyph glyph-name="B" unicode="B" horiz-adv-x="1253" 
d="M131 0v1544h584q73 0 143.5 -18.5t126.5 -64t90.5 -121.5t34.5 -191q0 -76 -24 -143t-66 -112t-92 -73q105 -48 163 -136.5t58 -215.5q0 -150 -47.5 -248t-125.5 -146t-160 -61.5t-157 -13.5h-528zM418 233h200q87 0 140 26.5t72.5 80t19.5 121.5q0 99 -34.5 151
t-89.5 65t-108 13h-200v-457zM418 922h203q34 0 69 7t62.5 28t45 58.5t17.5 98.5q0 86 -35.5 132t-80 56.5t-78.5 10.5h-203v-391z" />
    <glyph glyph-name="C" unicode="C" horiz-adv-x="1257" 
d="M641 -31q-128 0 -229.5 44t-172.5 139.5t-109 245.5t-38 362q0 201 37.5 353.5t109.5 255t177 154.5t241 52q164 0 276.5 -65.5t167.5 -182t75 -248.5l-295 -59q-19 121 -56 191t-84.5 91t-89.5 21q-134 0 -197 -143.5t-63 -425.5q0 -146 17 -247.5t49.5 -165t80 -92
t109.5 -28.5q74 0 126.5 42t79.5 126.5t36 188.5l299 -37q-22 -149 -65 -256.5t-109.5 -178t-159 -104t-213.5 -33.5z" />
    <glyph glyph-name="D" unicode="D" horiz-adv-x="1251" 
d="M131 0v1544h416q157 0 272.5 -44t191 -137t112 -238t36.5 -347t-36.5 -348.5t-112 -242t-191 -141.5t-272.5 -46h-416zM426 242h137q115 0 183 77t91 203.5t23 255.5q0 127 -16.5 224.5t-51.5 164.5t-91 101.5t-134 34.5h-141v-1061z" />
    <glyph glyph-name="E" unicode="E" horiz-adv-x="1118" 
d="M131 0v1544h885v-246h-590v-391h555v-241h-555v-420h618v-246h-913z" />
    <glyph glyph-name="F" unicode="F" horiz-adv-x="1042" 
d="M131 0v1544h870v-246h-575v-401h508v-242h-508v-655h-295z" />
    <glyph glyph-name="G" unicode="G" horiz-adv-x="1286" 
d="M623 -31q-114 0 -211 43t-168.5 138t-111.5 245t-40 365q0 201 39 353.5t112.5 255t180.5 154.5t242 52q153 0 261 -52t167.5 -164.5t81.5 -254.5l-281 -60q-19 101 -54.5 166t-83 89t-98.5 24q-135 0 -201.5 -146t-66.5 -423q0 -275 70 -404t198 -129q48 0 90.5 16
t74 50.5t49.5 87.5t18 127v86h-170v217h457v-805h-187l-26 156q-56 -91 -140.5 -139t-201.5 -48z" />
    <glyph glyph-name="H" unicode="H" horiz-adv-x="1284" 
d="M131 0v1544h295v-606h432v606h295v-1544h-295v688h-432v-688h-295z" />
    <glyph glyph-name="I" unicode="I" horiz-adv-x="557" 
d="M131 0v1544h295v-1544h-295z" />
    <glyph glyph-name="J" unicode="J" horiz-adv-x="1069" 
d="M498 -31q-122 0 -206 36.5t-137 101.5t-79 156t-33 200l281 35q4 -67 14.5 -118.5t29 -86t48 -52.5t73.5 -18q90 0 129 59t39 187v1075h295v-1061q0 -95 -20 -188t-75 -172t-150.5 -116t-208.5 -38z" />
    <glyph glyph-name="K" unicode="K" horiz-adv-x="1171" 
d="M131 0v1544h295v-616l414 616h323l-399 -567l428 -977h-332l-297 707l-137 -195v-512h-295z" />
    <glyph glyph-name="L" unicode="L" horiz-adv-x="1030" 
d="M131 0v1544h295v-1298h573v-246h-868z" />
    <glyph glyph-name="M" unicode="M" horiz-adv-x="1575" 
d="M131 0v1544h358l302 -1159l301 1159h352v-1544h-275v1059l-268 -1059h-227l-268 1059v-1059h-275z" />
    <glyph glyph-name="N" unicode="N" horiz-adv-x="1268" 
d="M131 0v1544h297l422 -1034v1034h287v-1544h-297l-422 1028v-1028h-287z" />
    <glyph glyph-name="O" unicode="O" horiz-adv-x="1341" 
d="M670 -31q-138 0 -245.5 50.5t-181.5 151t-112.5 250.5t-38.5 349q0 201 38.5 351.5t112.5 251.5t181.5 151.5t245.5 50.5q137 0 244.5 -50.5t182 -151.5t113.5 -251.5t39 -351.5q0 -199 -39 -349t-113.5 -250.5t-182 -151t-244.5 -50.5zM670 221q135 0 206.5 137
t71.5 412q0 278 -71.5 415.5t-206.5 137.5q-136 0 -207.5 -137.5t-71.5 -415.5q0 -275 71.5 -412t207.5 -137z" />
    <glyph glyph-name="P" unicode="P" horiz-adv-x="1186" 
d="M131 0v1544h539q106 0 187 -32.5t136 -95t83 -153t28 -206.5t-33 -207t-93 -154t-144.5 -96t-188.5 -33h-227v-567h-287zM418 801h170q50 0 91 18.5t70.5 52.5t45.5 82t16 107q0 119 -57 184.5t-166 65.5h-170v-510z" />
    <glyph glyph-name="Q" unicode="Q" horiz-adv-x="1341" 
d="M987 -236l-133 232q-45 -14 -90 -20.5t-94 -6.5q-138 0 -245.5 51t-181.5 151.5t-112.5 250.5t-38.5 348q0 201 38.5 351.5t112.5 251.5t181.5 151.5t245.5 50.5q137 0 244.5 -50.5t182 -151.5t113.5 -251.5t39 -351.5q0 -235 -55 -402.5t-162 -267.5l135 -235zM670 221
q24 0 55 8l-139 250l172 105l125 -219q32 75 48.5 173.5t16.5 231.5q0 278 -71.5 415.5t-206.5 137.5q-136 0 -207.5 -137.5t-71.5 -415.5q0 -273 71 -411t208 -138z" />
    <glyph glyph-name="R" unicode="R" horiz-adv-x="1219" 
d="M131 0v1544h541q220 0 330 -118t110 -351q0 -154 -58.5 -254.5t-158.5 -152.5l260 -668h-326l-215 614h-196v-614h-287zM418 848h184q100 0 154.5 55.5t54.5 179.5q0 119 -52 173.5t-157 54.5h-184v-463z" />
    <glyph glyph-name="S" unicode="S" horiz-adv-x="1174" 
d="M592 -31q-115 0 -204.5 24.5t-155.5 80t-110 144.5t-69 218l281 60q10 -72 27 -125t45.5 -87t72 -50.5t107.5 -16.5q77 0 126.5 31t65 78.5t15.5 89.5q0 56 -22 100.5t-63.5 74t-89.5 44.5l-167 51q-67 20 -131 48.5t-113.5 77.5t-80 124t-30.5 188q0 117 38.5 202
t103.5 140.5t152 82t185 26.5q155 0 260 -51.5t160.5 -149t81.5 -211.5l-268 -76q-16 78 -44.5 131t-77.5 82t-105 29q-105 0 -150 -50.5t-45 -137.5q0 -58 20 -100t61 -67t93 -40l209 -60q88 -24 146.5 -63.5t95.5 -93.5q75 -109 75 -285q0 -102 -30.5 -187t-92.5 -146.5
t-155 -95.5t-217 -34z" />
    <glyph glyph-name="T" unicode="T" horiz-adv-x="1118" 
d="M412 0v1298h-381v246h1056v-246h-380v-1298h-295z" />
    <glyph glyph-name="U" unicode="U" horiz-adv-x="1247" 
d="M625 -37q-134 0 -230 38.5t-158 111.5t-91 177.5t-29 235.5v1018h295v-1014q0 -83 12.5 -141.5t39 -96t66.5 -54.5t95 -17q109 0 160 72.5t51 236.5v1014h294v-1018q0 -131 -29 -235.5t-90 -177.5t-157 -111.5t-229 -38.5z" />
    <glyph glyph-name="V" unicode="V" horiz-adv-x="1126" 
d="M399 0l-399 1544h295l276 -1167l277 1167h278l-397 -1544h-330z" />
    <glyph glyph-name="W" unicode="W" horiz-adv-x="1602" 
d="M272 0l-272 1544h285l180 -1081l201 1081h278l199 -1081l182 1081h277l-287 -1544h-303l-215 1053l-222 -1053h-303z" />
    <glyph glyph-name="X" unicode="X" horiz-adv-x="1143" 
d="M0 0l418 786l-383 758h313l232 -471l239 471h291l-383 -735l416 -809h-328l-252 518l-258 -518h-305z" />
    <glyph glyph-name="Y" unicode="Y" horiz-adv-x="1094" 
d="M399 0v641l-399 903h297l258 -612l258 612h281l-400 -903v-641h-295z" />
    <glyph glyph-name="Z" unicode="Z" horiz-adv-x="1081" 
d="M53 0v238l637 1060h-588v246h902v-237l-635 -1061h659v-246h-975z" />
    <glyph glyph-name="bracketleft" unicode="[" horiz-adv-x="657" 
d="M131 -393v1937h467v-215h-207v-1507h207v-215h-467z" />
    <glyph glyph-name="backslash" unicode="\" horiz-adv-x="559" 
d="M324 0l-324 1544h233l326 -1544h-235z" />
    <glyph glyph-name="bracketright" unicode="]" horiz-adv-x="657" 
d="M59 -393v215h207v1507h-207v215h467v-1937h-467z" />
    <glyph glyph-name="asciicircum" unicode="^" horiz-adv-x="987" 
d="M51 797l324 747h239l322 -747h-250l-192 446l-193 -446h-250z" />
    <glyph glyph-name="underscore" unicode="_" horiz-adv-x="1024" 
d="M0 -266v123h1024v-123h-1024z" />
    <glyph glyph-name="grave" unicode="`" horiz-adv-x="838" 
d="M432 1272l-254 272h285l194 -272h-225z" />
    <glyph glyph-name="a" unicode="a" horiz-adv-x="975" 
d="M367 -31q-75 0 -131 23t-93.5 64.5t-56 100t-18.5 130.5q0 94 24 156t64.5 102t94 62t111.5 36l238 55v82q0 51 -27.5 82t-87.5 31q-48 0 -78.5 -20t-43 -47.5t-21.5 -53.5l-240 72q21 73 71.5 136.5t134.5 97.5t190 34q132 0 218.5 -41.5t121 -122t34.5 -178.5v-537
q0 -58 8 -118.5t25 -114.5h-258q-16 76 -18 111q-37 -54 -76 -84t-87.5 -44t-98.5 -14zM451 176q52 0 88 28t48.5 67.5t12.5 76.5v150l-129 -33q-68 -17 -99.5 -57t-31.5 -105q0 -43 14.5 -73t40.5 -42t56 -12z" />
    <glyph glyph-name="b" unicode="b" horiz-adv-x="1055" 
d="M614 -31q-47 0 -83.5 12t-65 33t-49 50t-35.5 63l-8 -127h-262v1544h282v-571q25 46 61 77.5t84 46.5t99 15q111 0 190.5 -67t115.5 -197t36 -289q0 -120 -19 -227.5t-62 -188t-112.5 -127.5t-171.5 -47zM541 188q74 0 112.5 85t38.5 266q0 180 -38.5 265t-112.5 85
q-73 0 -113.5 -85t-40.5 -265t40.5 -265.5t113.5 -85.5z" />
    <glyph glyph-name="c" unicode="c" horiz-adv-x="956" 
d="M504 -31q-113 0 -194 40.5t-133 115t-76.5 179.5t-24.5 233q0 123 26 228.5t79 182.5t135 120.5t194 43.5q119 0 204 -48t128.5 -132t58.5 -178l-264 -52q-9 82 -39 129.5t-90 47.5q-33 0 -60.5 -17.5t-47.5 -57t-31 -104.5t-11 -159q0 -177 35.5 -257.5t112.5 -80.5
q64 0 96 53t43 145l266 -53q-34 -156 -107 -244t-154.5 -111.5t-145.5 -23.5z" />
    <glyph glyph-name="d" unicode="d" horiz-adv-x="1055" 
d="M434 -31q-90 0 -157 42t-111.5 118.5t-67 183t-22.5 236.5q0 150 25.5 256.5t71 174.5t109.5 100t142 32q70 0 118 -23.5t76 -55.5t44 -58v569h282v-1544h-262l-8 129q-24 -55 -60.5 -92.5t-83.5 -52.5t-96 -15zM514 188q73 0 113.5 86t40.5 265q0 181 -40.5 265.5
t-113.5 84.5q-72 0 -112 -84.5t-40 -265.5q0 -179 40 -265t112 -86z" />
    <glyph glyph-name="e" unicode="e" horiz-adv-x="995" 
d="M506 -31q-110 0 -191 39.5t-134 113t-79 179.5t-26 238q0 128 26.5 233.5t80.5 181t135 117t190 41.5q100 0 178 -32t132 -96t82 -159t28 -221v-127h-574q3 -140 43 -210t121 -70q63 0 98.5 36t55.5 93l229 -93q-32 -101 -99.5 -162t-147 -81.5t-148.5 -20.5zM354 653
h297q-3 246 -145 246q-68 0 -108.5 -61t-43.5 -185z" />
    <glyph glyph-name="f" unicode="f" horiz-adv-x="606" 
d="M127 0v856h-111v225h111v158q0 77 19 140.5t59 105.5q38 38 92.5 59t128.5 21q96 0 192 -25l-16 -215q-47 10 -88 10q-20 0 -39 -6t-33 -20q-15 -16 -23.5 -40.5t-8.5 -62.5v-125h182v-225h-182v-856h-283z" />
    <glyph glyph-name="g" unicode="g" horiz-adv-x="1055" 
d="M502 -424q-78 0 -141.5 15.5t-113 42t-85 61.5t-56.5 74l220 112q8 -9 14 -17.5t14 -15.5q22 -21 56 -36t88 -15q35 0 65 10t51 31q23 22 35.5 60.5t12.5 109.5v150q-27 -46 -64.5 -77.5t-82.5 -44.5t-93 -13q-170 0 -258 131t-88 407q0 150 25 255t70 170.5t106.5 95.5
t134.5 30q76 0 129 -23t84 -61.5t49 -73.5l8 127h262v-1034q0 -101 -13.5 -173t-41 -116.5t-58.5 -74.5q-52 -51 -132 -79t-197 -28zM514 244q56 0 91 39t49 116.5t14 167.5q0 129 -23 204.5t-59 97.5t-72 22q-58 0 -93 -41t-47 -117t-12 -166t10 -151.5t29.5 -99.5t48 -55
t64.5 -17z" />
    <glyph glyph-name="h" unicode="h" horiz-adv-x="1040" 
d="M111 0v1544h282v-571q29 47 69.5 79t89.5 46t97 14q127 0 199 -72q38 -38 60 -95t22 -148v-797h-283v711q0 45 -7.5 78t-27.5 55q-12 12 -31.5 20t-50.5 8q-71 0 -104 -66.5t-33 -187.5v-618h-282z" />
    <glyph glyph-name="i" unicode="i" horiz-adv-x="504" 
d="M111 0v1081h282v-1081h-282zM111 1278v266h282v-266h-282z" />
    <glyph glyph-name="j" unicode="j" horiz-adv-x="483" 
d="M92 -424q-68 0 -119.5 8.5t-95.5 24.5l23 213q42 -15 90 -15q45 0 69 21q31 27 31 100v1153h283v-1179q0 -123 -42.5 -199.5t-108.5 -101.5t-130 -25zM90 1278v266h283v-266h-283z" />
    <glyph glyph-name="k" unicode="k" horiz-adv-x="989" 
d="M111 0v1544h282v-794l266 331h318l-281 -333l310 -748h-312l-200 522l-101 -123v-399h-282z" />
    <glyph glyph-name="l" unicode="l" horiz-adv-x="504" 
d="M111 0v1544h282v-1544h-282z" />
    <glyph glyph-name="m" unicode="m" horiz-adv-x="1577" 
d="M111 0v1081h260l10 -131q18 32 42.5 61.5t57.5 52t75 35.5t93 13q129 0 201 -72q18 -18 32 -39t23 -49q30 52 79 90.5t100 54t102 15.5q65 0 114 -18.5t84 -53.5q39 -38 60.5 -95t21.5 -148v-797h-282v711q0 45 -7.5 78t-27.5 55q-12 12 -31.5 20t-50.5 8
q-71 0 -104 -66.5t-33 -187.5v-618h-283v711q0 45 -7.5 78t-27.5 55q-12 12 -31.5 20t-50.5 8q-71 0 -104 -66.5t-33 -187.5v-618h-282z" />
    <glyph glyph-name="n" unicode="n" horiz-adv-x="1040" 
d="M111 0v1081h260l10 -131q18 32 42.5 61.5t57.5 52t75 35.5t93 13q127 0 199 -72q38 -38 60 -95t22 -148v-797h-283v711q0 45 -7.5 78t-27.5 55q-12 12 -31.5 20t-50.5 8q-71 0 -104 -66.5t-33 -187.5v-618h-282z" />
    <glyph glyph-name="o" unicode="o" horiz-adv-x="1042" 
d="M520 -31q-117 0 -201 42t-138 117t-79.5 180t-25.5 231q0 127 25.5 232t79.5 181t138 118t201 42q167 0 272 -89t140 -223t35 -261q0 -126 -26.5 -231t-81.5 -180t-139.5 -117t-199.5 -42zM520 203q58 0 96 43.5t52 123.5t14 169q0 179 -42.5 259.5t-119.5 80.5
q-78 0 -120 -80.5t-42 -259.5q0 -89 10.5 -153t31.5 -104.5t51 -59.5t69 -19z" />
    <glyph glyph-name="p" unicode="p" horiz-adv-x="1055" 
d="M111 -393v1474h262l8 -129q28 53 64.5 89.5t85.5 53.5t106 17q111 0 190.5 -67t115.5 -197t36 -289q0 -120 -19 -227t-62 -187.5t-112.5 -128t-171.5 -47.5q-67 0 -114.5 24.5t-71 54.5t-35.5 54v-495h-282zM541 190q73 0 112 85t39 264q0 181 -39 266.5t-112 85.5
t-113.5 -85.5t-40.5 -266.5q0 -179 40.5 -264t113.5 -85z" />
    <glyph glyph-name="q" unicode="q" horiz-adv-x="1055" 
d="M662 -393v497q-26 -49 -61 -78t-78.5 -43t-88.5 -14q-90 0 -157 42.5t-111.5 119t-67 183.5t-22.5 237q0 149 25.5 255t71 174t109.5 100t142 32q70 0 121.5 -24.5t81 -61t47.5 -72.5l8 127h262v-1474h-282zM514 190q73 0 113.5 85t40.5 264q0 181 -40.5 266.5
t-113.5 85.5q-72 0 -112 -85.5t-40 -266.5q0 -179 40 -264t112 -85z" />
    <glyph glyph-name="r" unicode="r" horiz-adv-x="690" 
d="M111 0v1081h272l10 -182q25 72 60 119q29 37 65 56.5t84 19.5q41 0 88 -13l-20 -260q-57 10 -90 10q-44 0 -78.5 -21.5t-58.5 -60.5t-37 -94t-13 -123v-532h-282z" />
    <glyph glyph-name="s" unicode="s" horiz-adv-x="926" 
d="M455 -31q-178 0 -280 75.5t-134 223.5l248 64q11 -54 30.5 -87.5t50 -47t72.5 -13.5q71 0 100 30.5t29 80.5q0 38 -17.5 62.5t-46 39t-56.5 23.5l-121 41q-51 18 -98 42.5t-82.5 62t-56.5 89.5t-21 125q0 120 58.5 198.5t149 106t173.5 27.5q108 0 193 -31.5t140 -109.5
q29 -41 52 -111l-238 -78q-11 43 -31 70.5t-49 39t-59 11.5q-65 0 -92 -30t-27 -74q0 -35 31.5 -65t93.5 -50l127 -43q99 -35 155 -81t77.5 -112t21.5 -139q0 -117 -57.5 -197t-149.5 -111.5t-186 -31.5z" />
    <glyph glyph-name="t" unicode="t" horiz-adv-x="662" 
d="M406 -20q-69 0 -118 20t-79.5 58.5t-44.5 94t-14 126.5v577h-109v225h109v308h282v-308h174v-225h-174v-534q0 -56 20 -82.5t66 -26.5q55 0 90 10l21 -217q-42 -14 -102 -20t-121 -6z" />
    <glyph glyph-name="u" unicode="u" horiz-adv-x="1038" 
d="M401 -31q-66 0 -115.5 16.5t-92.5 59.5q-41 38 -61.5 105t-20.5 151v780h282v-696q0 -43 5.5 -75t19 -53t36 -31.5t56.5 -10.5q64 0 99.5 51.5t35.5 167.5v647h283v-1081h-258l-13 131q-29 -53 -70 -91t-90.5 -54.5t-95.5 -16.5z" />
    <glyph glyph-name="v" unicode="v" horiz-adv-x="872" 
d="M295 0l-295 1081h281l161 -719l158 719h272l-288 -1081h-289z" />
    <glyph glyph-name="w" unicode="w" horiz-adv-x="1335" 
d="M244 0l-244 1081h268l140 -712l133 712h264l131 -719l139 719h260l-243 -1081h-287l-137 707l-138 -707h-286z" />
    <glyph glyph-name="x" unicode="x" horiz-adv-x="915" 
d="M-10 0l323 551l-299 530h303l148 -290l149 290h289l-299 -516l322 -565h-305l-168 322l-170 -322h-293z" />
    <glyph glyph-name="y" unicode="y" horiz-adv-x="936" 
d="M279 -424q-110 0 -218 35l33 213q52 -19 111 -19q50 0 82 27q36 35 51 92l16 62l-354 1095h287l198 -708l177 708h274l-336 -1192q-25 -88 -53.5 -146t-63.5 -93q-40 -40 -91.5 -57t-112.5 -17z" />
    <glyph glyph-name="z" unicode="z" horiz-adv-x="858" 
d="M53 0v203l436 653h-409v225h706v-202l-438 -656h457v-223h-752z" />
    <glyph glyph-name="braceleft" unicode="{" horiz-adv-x="768" 
d="M436 -393q-68 0 -117 40.5t-68.5 109.5t-19.5 149v409q0 63 -38.5 95t-78.5 39.5t-55 7.5v233q36 0 77.5 13t68 47t26.5 81v416q0 116 32.5 185t80.5 90.5t92 21.5h273v-215h-103q-50 0 -73.5 -25.5t-26 -55t-2.5 -50.5v-410q0 -71 -18 -112.5t-45 -63t-57.5 -29
t-55.5 -10.5q58 -8 95 -25.5t59 -66.5t22 -121v-407q0 -42 8 -71t33 -44.5t61 -15.5h103v-215h-273z" />
    <glyph glyph-name="bar" unicode="|" horiz-adv-x="489" 
d="M127 0v1544h235v-1544h-235z" />
    <glyph glyph-name="braceright" unicode="}" horiz-adv-x="768" 
d="M59 -393v215h103q49 0 71 24t26.5 55t4.5 52v407q0 72 18 113t45 62t57.5 28t55.5 10q-58 6 -96.5 27t-59 69t-20.5 119v410q0 21 -2.5 44t-12.5 42.5t-30.5 32t-56.5 12.5h-103v215h273q68 0 116 -38t68.5 -108.5t20.5 -150.5v-416q0 -47 21.5 -75t50 -42.5t57 -19
t43.5 -4.5v-233q-15 0 -43.5 -4.5t-57 -19t-50 -42.5t-21.5 -76v-409q0 -112 -34.5 -183.5t-82 -93.5t-88.5 -22h-273z" />
    <glyph glyph-name="asciitilde" unicode="~" horiz-adv-x="1241" 
d="M860 408q-54 0 -106.5 17.5t-88.5 42t-65 46.5l-88 66q-38 29 -65 43t-56 14q-60 0 -91 -51.5t-46 -163.5l-203 49q18 115 51.5 194.5t77.5 128.5t95.5 71t105.5 22q73 0 126 -22t122 -72l102 -78q45 -35 70.5 -45.5t58.5 -10.5q53 0 82.5 50.5t44.5 162.5l203 -49
q-18 -115 -51.5 -194.5t-77.5 -128.5t-95.5 -70.5t-105.5 -21.5z" />
    <glyph glyph-name="Adieresis" unicode="&#xc4;" horiz-adv-x="1192" 
d="M0 0l408 1544h378l406 -1544h-293l-82 328h-463l-80 -328h-274zM414 567h344l-172 695zM278 1639v272h244v-272h-244zM690 1639v272h243v-272h-243z" />
    <glyph glyph-name="Aring" unicode="&#xc5;" horiz-adv-x="1192" 
d="M0 0l405 1532q-11 18 -19 40q-15 43 -15 93q0 77 34.5 134t86 80.5t104.5 23.5q76 0 130.5 -38t75.5 -94t21 -106t-16 -93q-7 -21 -18 -40l403 -1532h-293l-82 328h-463l-80 -328h-274zM414 567h344l-172 695zM658 1562q24 21 32 50t8 53q0 39 -13.5 68t-37.5 42t-51 13
q-39 0 -63.5 -21.5t-32 -49.5t-7.5 -52t6 -46t18.5 -39t31.5 -28q11 -6 24 -8h46q23 4 39 18z" />
    <glyph glyph-name="Ccedilla" unicode="&#xc7;" horiz-adv-x="1257" 
d="M641 -31q-128 0 -229.5 44t-172.5 139.5t-109 245.5t-38 362q0 201 37.5 353.5t109.5 255t177 154.5t241 52q164 0 276.5 -65.5t167.5 -182t75 -248.5l-295 -59q-19 121 -56 191t-84.5 91t-89.5 21q-134 0 -197 -143.5t-63 -425.5q0 -146 17 -247.5t49.5 -165t80 -92
t109.5 -28.5q74 0 126.5 42t79.5 126.5t36 188.5l299 -37q-22 -149 -65 -256.5t-109.5 -178t-159 -104t-213.5 -33.5zM369 -393l176 272h194l-124 -272h-246z" />
    <glyph glyph-name="Eacute" unicode="&#xc9;" horiz-adv-x="1118" 
d="M131 0v1544h885v-246h-590v-391h555v-241h-555v-420h618v-246h-913zM446 1639l193 272h286l-253 -272h-226z" />
    <glyph glyph-name="Ntilde" unicode="&#xd1;" horiz-adv-x="1268" 
d="M131 0v1544h297l422 -1034v1034h287v-1544h-297l-422 1028v-1028h-287zM788 1624q-19 0 -36.5 2.5t-35.5 9.5t-38.5 19t-46.5 31l-37 27q-39 24 -62 24q-27 0 -43.5 -22t-25.5 -68l-158 31q14 99 51.5 161t81 81.5t78.5 19.5q40 0 72 -11.5t73 -39.5l56 -37
q37 -27 61 -27q25 0 40.5 18.5t25.5 77.5l157 -30q-9 -65 -28 -119t-47 -86q-26 -31 -62.5 -46.5t-75.5 -15.5z" />
    <glyph glyph-name="Odieresis" unicode="&#xd6;" horiz-adv-x="1341" 
d="M670 -31q-138 0 -245.5 50.5t-181.5 151t-112.5 250.5t-38.5 349q0 201 38.5 351.5t112.5 251.5t181.5 151.5t245.5 50.5q137 0 244.5 -50.5t182 -151.5t113.5 -251.5t39 -351.5q0 -199 -39 -349t-113.5 -250.5t-182 -151t-244.5 -50.5zM670 221q135 0 206.5 137
t71.5 412q0 278 -71.5 415.5t-206.5 137.5q-136 0 -207.5 -137.5t-71.5 -415.5q0 -275 71.5 -412t207.5 -137zM346 1639v272h244v-272h-244zM758 1639v272h243v-272h-243z" />
    <glyph glyph-name="Udieresis" unicode="&#xdc;" horiz-adv-x="1247" 
d="M625 -37q-134 0 -230 38.5t-158 111.5t-91 177.5t-29 235.5v1018h295v-1014q0 -83 12.5 -141.5t39 -96t66.5 -54.5t95 -17q109 0 160 72.5t51 236.5v1014h294v-1018q0 -131 -29 -235.5t-90 -177.5t-157 -111.5t-229 -38.5zM299 1639v272h244v-272h-244zM711 1639v272h243
v-272h-243z" />
    <glyph glyph-name="aacute" unicode="&#xe1;" horiz-adv-x="975" 
d="M367 -31q-75 0 -131 23t-93.5 64.5t-56 100t-18.5 130.5q0 94 24 156t64.5 102t94 62t111.5 36l238 55v82q0 51 -27.5 82t-87.5 31q-48 0 -78.5 -20t-43 -47.5t-21.5 -53.5l-240 72q21 73 71.5 136.5t134.5 97.5t190 34q132 0 218.5 -41.5t121 -122t34.5 -178.5v-537
q0 -58 8 -118.5t25 -114.5h-258q-16 76 -18 111q-37 -54 -76 -84t-87.5 -44t-98.5 -14zM451 176q52 0 88 28t48.5 67.5t12.5 76.5v150l-129 -33q-68 -17 -99.5 -57t-31.5 -105q0 -43 14.5 -73t40.5 -42t56 -12zM395 1272l193 272h286l-253 -272h-226z" />
    <glyph glyph-name="agrave" unicode="&#xe0;" horiz-adv-x="975" 
d="M367 -31q-75 0 -131 23t-93.5 64.5t-56 100t-18.5 130.5q0 94 24 156t64.5 102t94 62t111.5 36l238 55v82q0 51 -27.5 82t-87.5 31q-48 0 -78.5 -20t-43 -47.5t-21.5 -53.5l-240 72q21 73 71.5 136.5t134.5 97.5t190 34q132 0 218.5 -41.5t121 -122t34.5 -178.5v-537
q0 -58 8 -118.5t25 -114.5h-258q-16 76 -18 111q-37 -54 -76 -84t-87.5 -44t-98.5 -14zM451 176q52 0 88 28t48.5 67.5t12.5 76.5v150l-129 -33q-68 -17 -99.5 -57t-31.5 -105q0 -43 14.5 -73t40.5 -42t56 -12zM452 1272l-254 272h285l194 -272h-225z" />
    <glyph glyph-name="acircumflex" unicode="&#xe2;" horiz-adv-x="975" 
d="M367 -31q-75 0 -131 23t-93.5 64.5t-56 100t-18.5 130.5q0 94 24 156t64.5 102t94 62t111.5 36l238 55v82q0 51 -27.5 82t-87.5 31q-48 0 -78.5 -20t-43 -47.5t-21.5 -53.5l-240 72q21 73 71.5 136.5t134.5 97.5t190 34q132 0 218.5 -41.5t121 -122t34.5 -178.5v-537
q0 -58 8 -118.5t25 -114.5h-258q-16 76 -18 111q-37 -54 -76 -84t-87.5 -44t-98.5 -14zM451 176q52 0 88 28t48.5 67.5t12.5 76.5v150l-129 -33q-68 -17 -99.5 -57t-31.5 -105q0 -43 14.5 -73t40.5 -42t56 -12zM158 1272l219 272h252l219 -272h-229l-117 123l-117 -123h-227
z" />
    <glyph glyph-name="adieresis" unicode="&#xe4;" horiz-adv-x="975" 
d="M367 -31q-75 0 -131 23t-93.5 64.5t-56 100t-18.5 130.5q0 94 24 156t64.5 102t94 62t111.5 36l238 55v82q0 51 -27.5 82t-87.5 31q-48 0 -78.5 -20t-43 -47.5t-21.5 -53.5l-240 72q21 73 71.5 136.5t134.5 97.5t190 34q132 0 218.5 -41.5t121 -122t34.5 -178.5v-537
q0 -58 8 -118.5t25 -114.5h-258q-16 76 -18 111q-37 -54 -76 -84t-87.5 -44t-98.5 -14zM451 176q52 0 88 28t48.5 67.5t12.5 76.5v150l-129 -33q-68 -17 -99.5 -57t-31.5 -105q0 -43 14.5 -73t40.5 -42t56 -12zM188 1272v272h244v-272h-244zM600 1272v272h243v-272h-243z
" />
    <glyph glyph-name="atilde" unicode="&#xe3;" horiz-adv-x="975" 
d="M367 -31q-75 0 -131 23t-93.5 64.5t-56 100t-18.5 130.5q0 94 24 156t64.5 102t94 62t111.5 36l238 55v82q0 51 -27.5 82t-87.5 31q-48 0 -78.5 -20t-43 -47.5t-21.5 -53.5l-240 72q21 73 71.5 136.5t134.5 97.5t190 34q132 0 218.5 -41.5t121 -122t34.5 -178.5v-537
q0 -58 8 -118.5t25 -114.5h-258q-16 76 -18 111q-37 -54 -76 -84t-87.5 -44t-98.5 -14zM451 176q52 0 88 28t48.5 67.5t12.5 76.5v150l-129 -33q-68 -17 -99.5 -57t-31.5 -105q0 -43 14.5 -73t40.5 -42t56 -12zM643 1257q-19 0 -36.5 2.5t-35.5 9.5t-38.5 19t-46.5 31
l-37 27q-39 24 -62 24q-27 0 -43.5 -22t-25.5 -68l-158 31q14 99 51.5 161t81 81.5t78.5 19.5q40 0 72 -11.5t73 -39.5l56 -37q37 -27 61 -27q25 0 40.5 18.5t25.5 77.5l157 -30q-9 -65 -28 -119t-47 -86q-26 -31 -62.5 -46.5t-75.5 -15.5z" />
    <glyph glyph-name="aring" unicode="&#xe5;" horiz-adv-x="975" 
d="M367 -31q-75 0 -131 23t-93.5 64.5t-56 100t-18.5 130.5q0 94 24 156t64.5 102t94 62t111.5 36l238 55v82q0 51 -27.5 82t-87.5 31q-48 0 -78.5 -20t-43 -47.5t-21.5 -53.5l-240 72q21 73 71.5 136.5t134.5 97.5t190 34q132 0 218.5 -41.5t121 -122t34.5 -178.5v-537
q0 -58 8 -118.5t25 -114.5h-258q-16 76 -18 111q-37 -54 -76 -84t-87.5 -44t-98.5 -14zM451 176q52 0 88 28t48.5 67.5t12.5 76.5v150l-129 -33q-68 -17 -99.5 -57t-31.5 -105q0 -43 14.5 -73t40.5 -42t56 -12zM545 1262q-53 0 -94.5 18.5t-70.5 50.5t-44.5 75t-15.5 93
q0 77 34.5 134t86 80.5t104.5 23.5q76 0 130.5 -38t75.5 -94t21 -106t-15.5 -93t-44.5 -75t-71 -50.5t-96 -18.5zM545 1376q38 0 62 20.5t32 49.5t8 53q0 39 -13.5 68t-37.5 42t-51 13q-39 0 -63.5 -21.5t-32 -49.5t-7.5 -52t6 -46t18.5 -39t32 -27.5t46.5 -10.5z" />
    <glyph glyph-name="ccedilla" unicode="&#xe7;" horiz-adv-x="956" 
d="M504 -31q-113 0 -194 40.5t-133 115t-76.5 179.5t-24.5 233q0 123 26 228.5t79 182.5t135 120.5t194 43.5q119 0 204 -48t128.5 -132t58.5 -178l-264 -52q-9 82 -39 129.5t-90 47.5q-33 0 -60.5 -17.5t-47.5 -57t-31 -104.5t-11 -159q0 -177 35.5 -257.5t112.5 -80.5
q64 0 96 53t43 145l266 -53q-34 -156 -107 -244t-154.5 -111.5t-145.5 -23.5zM246 -393l176 272h194l-124 -272h-246z" />
    <glyph glyph-name="eacute" unicode="&#xe9;" horiz-adv-x="995" 
d="M506 -31q-110 0 -191 39.5t-134 113t-79 179.5t-26 238q0 128 26.5 233.5t80.5 181t135 117t190 41.5q100 0 178 -32t132 -96t82 -159t28 -221v-127h-574q3 -140 43 -210t121 -70q63 0 98.5 36t55.5 93l229 -93q-32 -101 -99.5 -162t-147 -81.5t-148.5 -20.5zM354 653
h297q-3 246 -145 246q-68 0 -108.5 -61t-43.5 -185zM405 1272l193 272h286l-253 -272h-226z" />
    <glyph glyph-name="egrave" unicode="&#xe8;" horiz-adv-x="995" 
d="M506 -31q-110 0 -191 39.5t-134 113t-79 179.5t-26 238q0 128 26.5 233.5t80.5 181t135 117t190 41.5q100 0 178 -32t132 -96t82 -159t28 -221v-127h-574q3 -140 43 -210t121 -70q63 0 98.5 36t55.5 93l229 -93q-32 -101 -99.5 -162t-147 -81.5t-148.5 -20.5zM354 653
h297q-3 246 -145 246q-68 0 -108.5 -61t-43.5 -185zM473 1272l-254 272h285l194 -272h-225z" />
    <glyph glyph-name="ecircumflex" unicode="&#xea;" horiz-adv-x="995" 
d="M506 -31q-110 0 -191 39.5t-134 113t-79 179.5t-26 238q0 128 26.5 233.5t80.5 181t135 117t190 41.5q100 0 178 -32t132 -96t82 -159t28 -221v-127h-574q3 -140 43 -210t121 -70q63 0 98.5 36t55.5 93l229 -93q-32 -101 -99.5 -162t-147 -81.5t-148.5 -20.5zM354 653
h297q-3 246 -145 246q-68 0 -108.5 -61t-43.5 -185zM168 1272l219 272h252l219 -272h-229l-117 123l-117 -123h-227z" />
    <glyph glyph-name="edieresis" unicode="&#xeb;" horiz-adv-x="995" 
d="M506 -31q-110 0 -191 39.5t-134 113t-79 179.5t-26 238q0 128 26.5 233.5t80.5 181t135 117t190 41.5q100 0 178 -32t132 -96t82 -159t28 -221v-127h-574q3 -140 43 -210t121 -70q63 0 98.5 36t55.5 93l229 -93q-32 -101 -99.5 -162t-147 -81.5t-148.5 -20.5zM354 653
h297q-3 246 -145 246q-68 0 -108.5 -61t-43.5 -185zM192 1272v272h244v-272h-244zM604 1272v272h243v-272h-243z" />
    <glyph glyph-name="iacute" unicode="&#xed;" horiz-adv-x="504" 
d="M111 0v1081h282v-1081h-282zM134 1272l193 272h286l-253 -272h-226z" />
    <glyph glyph-name="igrave" unicode="&#xec;" horiz-adv-x="504" 
d="M111 0v1081h282v-1081h-282zM152 1272l-254 272h285l194 -272h-225z" />
    <glyph glyph-name="icircumflex" unicode="&#xee;" horiz-adv-x="504" 
d="M111 0v1081h282v-1081h-282zM-87 1272l219 272h252l219 -272h-229l-117 123l-117 -123h-227z" />
    <glyph glyph-name="idieresis" unicode="&#xef;" horiz-adv-x="504" 
d="M111 0v1081h282v-1081h-282zM-71 1272v272h244v-272h-244zM341 1272v272h243v-272h-243z" />
    <glyph glyph-name="ntilde" unicode="&#xf1;" horiz-adv-x="1040" 
d="M111 0v1081h260l10 -131q18 32 42.5 61.5t57.5 52t75 35.5t93 13q127 0 199 -72q38 -38 60 -95t22 -148v-797h-283v711q0 45 -7.5 78t-27.5 55q-12 12 -31.5 20t-50.5 8q-71 0 -104 -66.5t-33 -187.5v-618h-282zM673 1257q-19 0 -36.5 2.5t-35.5 9.5t-38.5 19t-46.5 31
l-37 27q-39 24 -62 24q-27 0 -43.5 -22t-25.5 -68l-158 31q14 99 51.5 161t81 81.5t78.5 19.5q40 0 72 -11.5t73 -39.5l56 -37q37 -27 61 -27q25 0 40.5 18.5t25.5 77.5l157 -30q-9 -65 -28 -119t-47 -86q-26 -31 -62.5 -46.5t-75.5 -15.5z" />
    <glyph glyph-name="oacute" unicode="&#xf3;" horiz-adv-x="1042" 
d="M520 -31q-117 0 -201 42t-138 117t-79.5 180t-25.5 231q0 127 25.5 232t79.5 181t138 118t201 42q167 0 272 -89t140 -223t35 -261q0 -126 -26.5 -231t-81.5 -180t-139.5 -117t-199.5 -42zM520 203q58 0 96 43.5t52 123.5t14 169q0 179 -42.5 259.5t-119.5 80.5
q-78 0 -120 -80.5t-42 -259.5q0 -89 10.5 -153t31.5 -104.5t51 -59.5t69 -19zM426 1272l193 272h286l-253 -272h-226z" />
    <glyph glyph-name="ograve" unicode="&#xf2;" horiz-adv-x="1042" 
d="M520 -31q-117 0 -201 42t-138 117t-79.5 180t-25.5 231q0 127 25.5 232t79.5 181t138 118t201 42q167 0 272 -89t140 -223t35 -261q0 -126 -26.5 -231t-81.5 -180t-139.5 -117t-199.5 -42zM520 203q58 0 96 43.5t52 123.5t14 169q0 179 -42.5 259.5t-119.5 80.5
q-78 0 -120 -80.5t-42 -259.5q0 -89 10.5 -153t31.5 -104.5t51 -59.5t69 -19zM473 1272l-254 272h285l194 -272h-225z" />
    <glyph glyph-name="ocircumflex" unicode="&#xf4;" horiz-adv-x="1042" 
d="M520 -31q-117 0 -201 42t-138 117t-79.5 180t-25.5 231q0 127 25.5 232t79.5 181t138 118t201 42q167 0 272 -89t140 -223t35 -261q0 -126 -26.5 -231t-81.5 -180t-139.5 -117t-199.5 -42zM520 203q58 0 96 43.5t52 123.5t14 169q0 179 -42.5 259.5t-119.5 80.5
q-78 0 -120 -80.5t-42 -259.5q0 -89 10.5 -153t31.5 -104.5t51 -59.5t69 -19zM195 1272l219 272h252l219 -272h-229l-117 123l-117 -123h-227z" />
    <glyph glyph-name="odieresis" unicode="&#xf6;" horiz-adv-x="1042" 
d="M520 -31q-117 0 -201 42t-138 117t-79.5 180t-25.5 231q0 127 25.5 232t79.5 181t138 118t201 42q167 0 272 -89t140 -223t35 -261q0 -126 -26.5 -231t-81.5 -180t-139.5 -117t-199.5 -42zM520 203q58 0 96 43.5t52 123.5t14 169q0 179 -42.5 259.5t-119.5 80.5
q-78 0 -120 -80.5t-42 -259.5q0 -89 10.5 -153t31.5 -104.5t51 -59.5t69 -19zM196 1272v272h244v-272h-244zM608 1272v272h243v-272h-243z" />
    <glyph glyph-name="otilde" unicode="&#xf5;" horiz-adv-x="1042" 
d="M520 -31q-117 0 -201 42t-138 117t-79.5 180t-25.5 231q0 127 25.5 232t79.5 181t138 118t201 42q167 0 272 -89t140 -223t35 -261q0 -126 -26.5 -231t-81.5 -180t-139.5 -117t-199.5 -42zM520 203q58 0 96 43.5t52 123.5t14 169q0 179 -42.5 259.5t-119.5 80.5
q-78 0 -120 -80.5t-42 -259.5q0 -89 10.5 -153t31.5 -104.5t51 -59.5t69 -19zM673 1257q-19 0 -36.5 2.5t-35.5 9.5t-38.5 19t-46.5 31l-37 27q-39 24 -62 24q-27 0 -43.5 -22t-25.5 -68l-158 31q14 99 51.5 161t81 81.5t78.5 19.5q40 0 72 -11.5t73 -39.5l56 -37
q37 -27 61 -27q25 0 40.5 18.5t25.5 77.5l157 -30q-9 -65 -28 -119t-47 -86q-26 -31 -62.5 -46.5t-75.5 -15.5z" />
    <glyph glyph-name="uacute" unicode="&#xfa;" horiz-adv-x="1038" 
d="M401 -31q-66 0 -115.5 16.5t-92.5 59.5q-41 38 -61.5 105t-20.5 151v780h282v-696q0 -43 5.5 -75t19 -53t36 -31.5t56.5 -10.5q64 0 99.5 51.5t35.5 167.5v647h283v-1081h-258l-13 131q-29 -53 -70 -91t-90.5 -54.5t-95.5 -16.5zM405 1272l193 272h286l-253 -272h-226z
" />
    <glyph glyph-name="ugrave" unicode="&#xf9;" horiz-adv-x="1038" 
d="M401 -31q-66 0 -115.5 16.5t-92.5 59.5q-41 38 -61.5 105t-20.5 151v780h282v-696q0 -43 5.5 -75t19 -53t36 -31.5t56.5 -10.5q64 0 99.5 51.5t35.5 167.5v647h283v-1081h-258l-13 131q-29 -53 -70 -91t-90.5 -54.5t-95.5 -16.5zM452 1272l-254 272h285l194 -272h-225z
" />
    <glyph glyph-name="ucircumflex" unicode="&#xfb;" horiz-adv-x="1038" 
d="M401 -31q-66 0 -115.5 16.5t-92.5 59.5q-41 38 -61.5 105t-20.5 151v780h282v-696q0 -43 5.5 -75t19 -53t36 -31.5t56.5 -10.5q64 0 99.5 51.5t35.5 167.5v647h283v-1081h-258l-13 131q-29 -53 -70 -91t-90.5 -54.5t-95.5 -16.5zM170 1272l219 272h252l219 -272h-229
l-117 123l-117 -123h-227z" />
    <glyph glyph-name="udieresis" unicode="&#xfc;" horiz-adv-x="1038" 
d="M401 -31q-66 0 -115.5 16.5t-92.5 59.5q-41 38 -61.5 105t-20.5 151v780h282v-696q0 -43 5.5 -75t19 -53t36 -31.5t56.5 -10.5q64 0 99.5 51.5t35.5 167.5v647h283v-1081h-258l-13 131q-29 -53 -70 -91t-90.5 -54.5t-95.5 -16.5zM196 1272v272h244v-272h-244zM608 1272
v272h243v-272h-243z" />
    <glyph glyph-name="dagger" unicode="&#x2020;" horiz-adv-x="915" 
d="M326 -197v1061h-265v250h265v430h264v-430h264v-250h-264v-1061h-264z" />
    <glyph glyph-name="degree" unicode="&#xb0;" horiz-adv-x="889" 
d="M444 799q-79 0 -149 30t-122 82t-82 122t-30 149t30 149t82 122t122 82t149 30q117 0 212 -64.5t133 -152t38 -166.5q0 -118 -64.5 -213t-152 -132.5t-166.5 -37.5zM444 981q56 0 101 31.5t64.5 79t19.5 90.5q0 60 -30 110t-73.5 70t-81.5 20q-58 0 -103.5 -33t-63 -78.5
t-17.5 -88.5q0 -63 31.5 -114t72.5 -69t80 -18z" />
    <glyph glyph-name="cent" unicode="&#xa2;" horiz-adv-x="956" 
d="M424 -37v203q-92 13 -157.5 58.5t-108 118t-62.5 170t-20 214.5q0 110 20.5 206t63.5 171t108.5 124.5t155.5 65.5v203h156v-197q99 -13 168 -64.5t104 -129.5t49 -162l-264 -51q-9 81 -39 128.5t-90 47.5q-33 0 -60.5 -17.5t-47.5 -57t-31 -104.5t-11 -159
q0 -176 35.5 -257t112.5 -81q47 0 76.5 29.5t43 76t19.5 93.5l266 -53q-20 -95 -54 -162t-77.5 -111t-94.5 -68t-105 -32v-203h-156z" />
    <glyph glyph-name="sterling" unicode="&#xa3;" 
d="M78 0v231q108 51 169.5 117t80 132t20.5 120h-233v191h174q-22 34 -47 69t-54 86q-24 44 -40.5 99t-16.5 133q0 79 27 152t82.5 128.5t139.5 89t198 33.5q154 0 254 -53t149 -150.5t68 -210.5l-271 -59q-20 117 -57 170q-23 31 -54.5 46t-76.5 15q-89 0 -131 -59
q-17 -25 -25 -56.5t-8 -66.5q0 -39 13 -80t25.5 -65.5t24.5 -42.5q74 -120 91 -178h274v-191h-262q-6 -103 -42.5 -187.5t-121.5 -156.5h619v-256h-969z" />
    <glyph glyph-name="section" unicode="&#xa7;" horiz-adv-x="1096" 
d="M559 -217q-104 0 -184.5 23t-139 66t-96.5 105t-57 140l242 86q11 -42 29.5 -78.5t46 -62.5t66 -41t89.5 -15q85 0 131.5 31t46.5 100q0 62 -36 93.5t-111 54.5l-148 41q-74 21 -134.5 47t-103.5 63.5t-66 88t-23 120.5q0 65 24.5 124t60 92t64.5 50q-35 22 -62.5 47.5
t-47.5 59.5t-30.5 77.5t-10.5 100.5q0 89 31 158t87.5 116t136 71t177.5 24q133 0 225 -35.5t145 -105t78 -150.5l-227 -105q-22 83 -81.5 130t-137.5 47q-85 0 -125.5 -37t-40.5 -99q0 -38 25 -66.5t96 -47.5l243 -72q128 -37 194 -108t66 -187q0 -97 -39.5 -168.5
t-111.5 -111.5q56 -33 93.5 -77.5t54 -99.5t16.5 -110q0 -133 -66 -222t-171.5 -123t-217.5 -34zM645 532q38 4 67 25t39.5 49.5t10.5 52.5q0 40 -14 66t-47.5 46t-75.5 32l-158 41q-43 -9 -70.5 -33.5t-35 -51t-7.5 -48.5q0 -40 15.5 -67.5t49.5 -44t79 -28.5z" />
    <glyph glyph-name="bullet" unicode="&#x2022;" horiz-adv-x="1053" 
d="M526 414q-79 0 -148 31.5t-120.5 85.5t-81 126.5t-29.5 155.5q0 124 63 221t150 137.5t166 40.5q117 0 209.5 -66.5t131 -158t38.5 -174.5t-29.5 -155.5t-81 -126.5t-120.5 -85.5t-148 -31.5z" />
    <glyph glyph-name="paragraph" unicode="&#xb6;" horiz-adv-x="1300" 
d="M535 -393v950h-13q-96 0 -177 33.5t-139.5 97.5t-91 156t-32.5 209q0 115 29 206t89 154.5t151 97t214 33.5h633v-213h-92v-1724h-195v1724h-182v-1724h-194z" />
    <glyph glyph-name="germandbls" unicode="&#xdf;" horiz-adv-x="1065" 
d="M614 -18q-45 0 -81 5.5t-50 10.5l29 231q16 -4 37 -4q74 0 113.5 63t39.5 191q0 100 -23 158t-68 79t-101 21h-16v226h14q58 0 92.5 34.5t43.5 84t9 94.5q0 78 -32.5 128t-92.5 50q-53 0 -85 -38.5t-41 -97t-9 -112.5v-1106h-282v1079q0 102 22 192.5t76 160.5
q48 60 127.5 96.5t191.5 36.5q120 0 196.5 -36.5t121.5 -94.5q74 -94 74 -230q0 -75 -20 -141t-58.5 -109.5t-83.5 -72.5q111 -26 171 -123t60 -262q0 -101 -19 -194t-63 -164t-116 -113.5t-177 -42.5z" />
    <glyph glyph-name="registered" unicode="&#xae;" horiz-adv-x="1716" 
d="M858 -35q-106 0 -204 29t-183 81.5t-155 126t-119.5 163t-77 192.5t-27.5 215q0 147 47.5 281.5t132 239t194.5 173t206.5 91t185.5 22.5q106 0 204 -28.5t183 -81t155 -126t119.5 -163.5t77 -193t27.5 -215q0 -111 -27.5 -214.5t-77 -193t-119.5 -163t-155 -126
t-183 -81.5t-204 -29zM858 152q114 0 215 49t176.5 133t119.5 197t44 241t-44 241t-119.5 197.5t-176.5 133.5t-215 49t-215 -49t-176.5 -133.5t-119.5 -197.5t-44 -241t44 -241t119.5 -197t176.5 -133t215 -49zM539 356v848h342q149 0 227 -70t78 -200q0 -75 -35.5 -131
t-101.5 -90l170 -357h-238l-135 312h-98v-312h-209zM748 831h75q51 0 84.5 11.5t47.5 37t14 56.5q0 42 -20.5 65t-56 30t-69.5 7h-75v-207z" />
    <glyph glyph-name="copyright" unicode="&#xa9;" horiz-adv-x="1716" 
d="M858 -35q-106 0 -204 29t-183 81.5t-155 126t-119.5 163t-77 192.5t-27.5 215q0 147 47.5 281.5t132 239t194.5 173t206.5 91t185.5 22.5q106 0 204 -28.5t183 -81t155 -126t119.5 -163.5t77 -193t27.5 -215q0 -111 -27.5 -214.5t-77 -193t-119.5 -163t-155 -126
t-183 -81.5t-204 -29zM858 152q114 0 215 49t176.5 133t119.5 197t44 241t-44 241t-119.5 197.5t-176.5 133.5t-215 49t-215 -49t-176.5 -133.5t-119.5 -197.5t-44 -241t44 -241t119.5 -197t176.5 -133t215 -49zM858 342q-81 0 -149.5 27.5t-118 81.5t-77.5 135t-28 188
q0 153 57 258.5t144.5 146t175.5 40.5q136 0 221.5 -70t122.5 -203l-219 -53q-17 59 -52 91t-77 32q-69 0 -110 -64t-41 -180q0 -112 42.5 -169.5t110.5 -57.5q33 0 63.5 20t48.5 55t23 72l224 -30q-34 -151 -122 -235.5t-239 -84.5z" />
    <glyph glyph-name="trademark" unicode="&#x2122;" horiz-adv-x="1905" 
d="M258 688v676h-244v180h709v-180h-244v-676h-221zM868 688v856h267l194 -604l195 604h252v-856h-207v514l-158 -514h-172l-164 531v-531h-207z" />
    <glyph glyph-name="acute" unicode="&#xb4;" horiz-adv-x="838" 
d="M180 1272l193 272h286l-253 -272h-226z" />
    <glyph glyph-name="dieresis" unicode="&#xa8;" horiz-adv-x="836" 
d="M90 1272v272h244v-272h-244zM502 1272v272h243v-272h-243z" />
    <glyph glyph-name="notequal" unicode="&#x2260;" 
d="M211 147l94 232h-209v248h310l83 209h-393v247h494l94 232h207l-94 -232h204v-247h-305l-86 -209h391v-248h-491l-94 -232h-205z" />
    <glyph glyph-name="AE" unicode="&#xc6;" horiz-adv-x="1901" 
d="M-18 0l723 1544h1095v-246h-590v-391h553v-241h-553v-420h617v-246h-914v365h-477l-172 -365h-282zM551 606h362v692h-34z" />
    <glyph glyph-name="Oslash" unicode="&#xd8;" horiz-adv-x="1341" 
d="M258 -164l-156 90l138 250q-73 100 -110.5 247.5t-37.5 346.5q0 201 38.5 351.5t112.5 251.5t181.5 151.5t245.5 50.5q172 0 299 -80l116 213l156 -90l-139 -252q72 -100 109.5 -248.5t37.5 -347.5t-39 -349t-113.5 -250.5t-182 -151t-244.5 -50.5q-170 0 -295 78z
M670 215q138 0 211 138.5t73 416.5q0 82 -6 152t-20 129l-422 -766q64 -70 164 -70zM412 487l424 770q-68 72 -166 72q-139 0 -212 -139t-73 -420q0 -84 6.5 -154t20.5 -129z" />
    <glyph glyph-name="plusminus" unicode="&#xb1;" 
d="M96 0v246h320v362h-320v246h320v430h266v-430h319v-246h-319v-362h319v-246h-905z" />
    <glyph glyph-name="lessequal" unicode="&#x2264;" 
d="M96 0v254h905v-254h-905zM1001 379l-905 338v266l905 338v-266l-632 -205l632 -205v-266z" />
    <glyph glyph-name="greaterequal" unicode="&#x2265;" 
d="M96 0v254h905v-254h-905zM96 379v266l633 205l-633 205v266l905 -338v-266z" />
    <glyph glyph-name="yen" unicode="&#xa5;" horiz-adv-x="1106" 
d="M406 0v326h-246v155h246v160h-246v156h176l-330 747h293l262 -622l262 622h277l-330 -747h178v-156h-246v-160h246v-155h-246v-326h-296z" />
    <glyph glyph-name="currency" unicode="&#xa4;" horiz-adv-x="1290" 
d="M238 211l-136 139l119 123q-43 65 -66.5 140.5t-23.5 160.5q0 84 23.5 161t66.5 140l-119 123l136 139l118 -123q62 44 135 67.5t154 23.5q79 0 153 -24.5t136 -66.5l119 123l135 -139l-119 -123q43 -63 66.5 -139.5t23.5 -161.5q0 -83 -23.5 -160.5t-66.5 -140.5
l119 -123l-135 -139l-119 123q-63 -44 -135.5 -67t-153.5 -23q-78 0 -152.5 24t-136.5 66zM645 467q87 0 157 51t98 121.5t28 134.5q0 95 -46 170t-111.5 106t-125.5 31t-111.5 -24t-90 -65.5t-60 -97.5t-21.5 -120t21.5 -120t60 -97.5t90 -65.5t111.5 -24z" />
    <glyph glyph-name="ordfeminine" unicode="&#xaa;" horiz-adv-x="743" 
d="M268 815q-57 0 -99 17t-69 47t-40 70t-13 85q0 88 34.5 141t86.5 72t102 25l207 26v23q0 96 -108 96q-46 0 -73 -15.5t-39 -34t-19 -32.5l-166 47q5 20 21 51t49.5 60.5t87.5 50.5t137 21q105 0 172 -29t96 -87t29 -128v-332q0 -37 6 -76.5t20 -74.5h-176q-8 26 -14 88
q-42 -60 -97.5 -85.5t-134.5 -25.5zM322 967q45 0 83.5 21.5t55 53t16.5 62.5v55l-141 -20q-37 -6 -60.5 -17t-34 -31.5t-10.5 -48.5q0 -35 23 -55t68 -20z" />
    <glyph glyph-name="ordmasculine" unicode="&#xba;" horiz-adv-x="809" 
d="M403 815q-90 0 -155 29.5t-106.5 80.5t-61 119t-19.5 144q0 77 19.5 145.5t61 120t106.5 81.5t155 30q128 0 209.5 -63t108.5 -150t27 -164q0 -76 -20.5 -144t-63 -119t-107.5 -80.5t-154 -29.5zM403 993q69 0 108.5 52.5t39.5 142.5q0 93 -39.5 145.5t-108.5 52.5
q-68 0 -107.5 -52.5t-39.5 -145.5q0 -90 39.5 -142.5t107.5 -52.5z" />
    <glyph glyph-name="ae" unicode="&#xe6;" horiz-adv-x="1507" 
d="M393 -31q-74 0 -134 23t-102.5 64.5t-65.5 100t-23 130.5q0 94 24 156t64.5 102t94 62t111.5 36l238 55v62q0 65 -27.5 101t-87.5 36q-47 0 -78 -20.5t-44 -50t-21 -54.5l-240 72q20 69 67 133.5t126 99.5t176 35q78 0 134.5 -13t98 -41.5t68.5 -64.5q28 37 72.5 65.5
t97.5 41t105 12.5q90 0 162.5 -32t123.5 -96t79 -159t28 -221v-127h-574q3 -140 43 -210t121 -70q63 0 98.5 36t55.5 93l229 -93q-32 -101 -99.5 -162t-147 -81.5t-148.5 -20.5q-106 0 -186 37.5t-134 110.5q-38 -50 -84 -83.5t-105.5 -49t-115.5 -15.5zM451 176q52 0 88 28
t48.5 67.5t12.5 76.5v150l-129 -33q-68 -17 -99.5 -57t-31.5 -105q0 -43 14.5 -73t40.5 -42t56 -12zM866 653h297q-3 246 -145 246q-68 0 -108.5 -61t-43.5 -185z" />
    <glyph glyph-name="oslash" unicode="&#xf8;" horiz-adv-x="1042" 
d="M217 -125l-121 74l97 164q-60 75 -88.5 183t-28.5 243q0 127 25.5 232t79.5 181t138 118t201 42q129 0 221 -53l84 147l121 -73l-96 -168q60 -78 88.5 -185.5t28.5 -240.5q0 -126 -26.5 -231t-81.5 -180t-139.5 -117t-199.5 -42q-65 0 -119 13.5t-100 37.5zM520 193
q61 0 100.5 45t54.5 127t15 174q0 89 -8 139l-258 -447q37 -38 96 -38zM358 401l258 447q-20 22 -44 31.5t-52 9.5q-83 0 -126.5 -83t-43.5 -267q0 -92 8 -138z" />
    <glyph glyph-name="questiondown" unicode="&#xbf;" horiz-adv-x="1018" 
d="M514 -31q-109 0 -188 31.5t-130 86t-75.5 128t-24.5 158.5q0 90 21 159t49 105.5t53 64.5q54 56 127 119q35 29 50.5 48.5t23.5 49t8 62.5v76h248v-148q0 -63 -23.5 -107t-72.5 -89q-42 -41 -78 -74.5t-62.5 -68.5t-41.5 -75.5t-15 -95.5q0 -93 33.5 -143.5t111.5 -50.5
q64 0 101 44t50.5 105.5t16.5 108.5l269 -39q-12 -103 -43 -187t-85.5 -143.5t-134.5 -92t-188 -32.5zM418 1217v327h268v-327h-268z" />
    <glyph glyph-name="exclamdown" unicode="&#xa1;" horiz-adv-x="637" 
d="M174 0v340l27 676h237l25 -676v-340h-289zM176 1206v338h287v-338h-287z" />
    <glyph glyph-name="logicalnot" unicode="&#xac;" 
d="M748 379v450h-652v254h905v-704h-253z" />
    <glyph glyph-name="florin" unicode="&#x192;" horiz-adv-x="666" 
d="M-4 -424q-50 0 -106 10t-115 33l35 209q49 -16 90 -16q29 0 48.5 6.5t35.5 21.5q17 17 26.5 42.5t16.5 62.5l116 782h-94v225h129l47 299q26 161 105 237.5t194 76.5q66 0 122 -9t104 -26l-37 -213q-17 5 -40.5 7.5t-49.5 2.5q-29 0 -50 -10.5t-38 -30.5
q-16 -17 -25.5 -44t-15.5 -62l-35 -228h164v-225h-199l-123 -825q-11 -75 -34 -135t-60 -102.5t-89 -65.5t-122 -23z" />
    <glyph glyph-name="guillemotleft" unicode="&#xab;" horiz-adv-x="971" 
d="M225 174l-192 361l192 360h279l-191 -360l191 -361h-279zM662 174l-191 361l191 360h276l-188 -360l188 -361h-276z" />
    <glyph glyph-name="guillemotright" unicode="&#xbb;" horiz-adv-x="971" 
d="M33 174l188 361l-188 360h276l191 -360l-191 -361h-276zM467 174l190 361l-190 360h278l193 -360l-193 -361h-278z" />
    <glyph glyph-name="ellipsis" unicode="&#x2026;" horiz-adv-x="2048" 
d="M197 0v338h286v-338h-286zM881 0v338h286v-338h-286zM1565 0v338h286v-338h-286z" />
    <glyph glyph-name="nonbreakingspace" unicode="&#xa0;" horiz-adv-x="856" 
 />
    <glyph glyph-name="Agrave" unicode="&#xc0;" horiz-adv-x="1192" 
d="M0 0l408 1544h378l406 -1544h-293l-82 328h-463l-80 -328h-274zM414 567h344l-172 695zM493 1639l-254 272h285l194 -272h-225z" />
    <glyph glyph-name="Atilde" unicode="&#xc3;" horiz-adv-x="1192" 
d="M0 0l408 1544h378l406 -1544h-293l-82 328h-463l-80 -328h-274zM414 567h344l-172 695zM729 1624q-19 0 -36.5 2.5t-35.5 9.5t-38.5 19t-46.5 31l-37 27q-39 24 -62 24q-27 0 -43.5 -22t-25.5 -68l-158 31q14 99 51.5 161t81 81.5t78.5 19.5q40 0 72 -11.5t73 -39.5
l56 -37q37 -27 61 -27q25 0 40.5 18.5t25.5 77.5l157 -30q-9 -65 -28 -119t-47 -86q-26 -31 -62.5 -46.5t-75.5 -15.5z" />
    <glyph glyph-name="Otilde" unicode="&#xd5;" horiz-adv-x="1341" 
d="M670 -31q-138 0 -245.5 50.5t-181.5 151t-112.5 250.5t-38.5 349q0 201 38.5 351.5t112.5 251.5t181.5 151.5t245.5 50.5q137 0 244.5 -50.5t182 -151.5t113.5 -251.5t39 -351.5q0 -199 -39 -349t-113.5 -250.5t-182 -151t-244.5 -50.5zM670 221q135 0 206.5 137
t71.5 412q0 278 -71.5 415.5t-206.5 137.5q-136 0 -207.5 -137.5t-71.5 -415.5q0 -275 71.5 -412t207.5 -137zM815 1624q-19 0 -36.5 2.5t-35.5 9.5t-38.5 19t-46.5 31l-37 27q-39 24 -62 24q-27 0 -43.5 -22t-25.5 -68l-158 31q14 99 51.5 161t81 81.5t78.5 19.5
q40 0 72 -11.5t73 -39.5l56 -37q37 -27 61 -27q25 0 40.5 18.5t25.5 77.5l157 -30q-9 -65 -28 -119t-47 -86q-26 -31 -62.5 -46.5t-75.5 -15.5z" />
    <glyph glyph-name="OE" unicode="&#x152;" horiz-adv-x="1909" 
d="M618 -31q-118 0 -215 49.5t-166 149t-107 250t-38 352.5q0 201 38 351.5t108 251.5t169.5 151.5t221.5 50.5q127 0 210.5 -47t118.5 -125v141h848v-246h-594v-391h560v-241h-560v-420h623v-246h-877v135q-46 -78 -130.5 -122t-209.5 -44zM670 221q135 0 206.5 137
t71.5 412q0 278 -71.5 415.5t-206.5 137.5q-136 0 -207.5 -137.5t-71.5 -415.5q0 -275 71.5 -412t207.5 -137z" />
    <glyph glyph-name="oe" unicode="&#x153;" horiz-adv-x="1589" 
d="M494 -31q-105 0 -183.5 42t-130.5 117t-78 180t-26 231q0 127 25.5 232t78 181t133 118t191.5 42q108 0 183.5 -35t129.5 -116q43 71 119 111t176 40q96 0 172 -32t129 -96t81 -159t28 -221v-127h-574q3 -140 43 -210t121 -70q63 0 98.5 36t55.5 93l229 -93
q-32 -101 -99.5 -162t-147 -81.5t-148.5 -20.5q-99 0 -170.5 38.5t-116.5 109.5q-54 -78 -130.5 -113t-188.5 -35zM520 203q58 0 96 43.5t52 123.5t14 169q0 179 -42.5 259.5t-119.5 80.5q-78 0 -120 -80.5t-42 -259.5q0 -89 10.5 -153t31.5 -104.5t51 -59.5t69 -19z
M948 653h297q-3 246 -145 246q-68 0 -108.5 -61t-43.5 -185z" />
    <glyph glyph-name="endash" unicode="&#x2013;" horiz-adv-x="1024" 
d="M0 467v231h1024v-231h-1024z" />
    <glyph glyph-name="emdash" unicode="&#x2014;" horiz-adv-x="2048" 
d="M0 467v231h2048v-231h-2048z" />
    <glyph glyph-name="quotedblleft" unicode="&#x201c;" horiz-adv-x="981" 
d="M137 801v325q0 83 18.5 150.5t48 121t67 94.5t75.5 71l103 -113q-50 -45 -82 -91t-45 -95t-13 -97v-28h115v-338h-287zM557 801v325q0 83 18.5 150.5t48 121t67 94.5t75.5 71l102 -113q-50 -45 -81 -90t-44.5 -95t-13.5 -98v-28h115v-338h-287z" />
    <glyph glyph-name="quotedblright" unicode="&#x201d;" horiz-adv-x="981" 
d="M215 784l-102 113q46 39 79 87.5t46.5 98t13.5 97.5v28h-115v338h287v-325q0 -113 -37 -206t-85.5 -147t-86.5 -84zM635 784l-103 113q43 37 77.5 85t48.5 99t14 99v28h-115v338h287v-325q0 -113 -37 -206t-85.5 -147t-86.5 -84z" />
    <glyph glyph-name="quoteleft" unicode="&#x2018;" horiz-adv-x="561" 
d="M137 801v325q0 83 18.5 150.5t48 121t67 94.5t75.5 71l103 -113q-50 -45 -82 -91t-45 -95t-13 -97v-28h115v-338h-287z" />
    <glyph glyph-name="quoteright" unicode="&#x2019;" horiz-adv-x="561" 
d="M215 784l-102 113q46 39 79 87.5t46.5 98t13.5 97.5v28h-115v338h287v-325q0 -113 -37 -206t-85.5 -147t-86.5 -84z" />
    <glyph glyph-name="divide" unicode="&#xf7;" 
d="M428 150v301h240v-301h-240zM96 604v254h905v-254h-905zM428 1012v301h240v-301h-240z" />
    <glyph glyph-name="ydieresis" unicode="&#xff;" horiz-adv-x="936" 
d="M279 -424q-110 0 -218 35l33 213q52 -19 111 -19q50 0 82 27q36 35 51 92l16 62l-354 1095h287l198 -708l177 708h274l-336 -1192q-25 -88 -53.5 -146t-63.5 -93q-40 -40 -91.5 -57t-112.5 -17zM139 1272v272h244v-272h-244zM551 1272v272h243v-272h-243z" />
    <glyph glyph-name="Ydieresis" unicode="&#x178;" horiz-adv-x="1094" 
d="M399 0v641l-399 903h297l258 -612l258 612h281l-400 -903v-641h-295zM233 1639v272h244v-272h-244zM645 1639v272h243v-272h-243z" />
    <glyph glyph-name="guilsinglleft" unicode="&#x2039;" horiz-adv-x="537" 
d="M225 174l-192 361l192 360h279l-191 -360l191 -361h-279z" />
    <glyph glyph-name="guilsinglright" unicode="&#x203a;" horiz-adv-x="532" 
d="M33 174l188 361l-188 360h276l191 -360l-191 -361h-276z" />
    <glyph glyph-name="fi" unicode="&#xfb01;" horiz-adv-x="1110" 
d="M127 0v856h-111v225h111v158q0 77 19 140.5t59 105.5q38 38 92.5 59t128.5 21q96 0 192 -25l-16 -215q-47 10 -88 10q-20 0 -39 -6t-33 -20q-15 -16 -23.5 -40.5t-8.5 -62.5v-125h182v-225h-182v-856h-283zM717 0v1081h282v-1081h-282zM717 1278v266h282v-266h-282z" />
    <glyph glyph-name="fl" unicode="&#xfb02;" horiz-adv-x="1110" 
d="M127 0v856h-111v225h111v158q0 77 19 140.5t59 105.5q38 38 92.5 59t128.5 21q96 0 192 -25l-16 -215q-47 10 -88 10q-20 0 -39 -6t-33 -20q-15 -16 -23.5 -40.5t-8.5 -62.5v-125h182v-225h-182v-856h-283zM717 0v1544h282v-1544h-282z" />
    <glyph glyph-name="daggerdbl" unicode="&#x2021;" horiz-adv-x="973" 
d="M354 -197v430h-264v250h264v381h-264v250h264v430h264v-430h265v-250h-265v-381h265v-250h-265v-430h-264z" />
    <glyph glyph-name="periodcentered" unicode="&#xb7;" horiz-adv-x="561" 
d="M137 561v338h287v-338h-287z" />
    <glyph glyph-name="periodcentered" unicode="&#x22c5;" horiz-adv-x="561" 
d="M137 561v338h287v-338h-287z" />
    <glyph glyph-name="periodcentered" unicode="&#x2219;" horiz-adv-x="561" 
d="M137 561v338h287v-338h-287z" />
    <glyph glyph-name="quotesinglbase" unicode="&#x201a;" horiz-adv-x="561" 
d="M215 -424l-102 113q48 42 79.5 88t45.5 96t14 98v29h-115v338h287v-326q0 -114 -37 -206t-85.5 -146t-86.5 -84z" />
    <glyph glyph-name="quotedblbase" unicode="&#x201e;" horiz-adv-x="981" 
d="M215 -424l-102 113q48 42 79.5 88t45.5 96t14 98v29h-115v338h287v-326q0 -114 -37 -206t-85.5 -146t-86.5 -84zM635 -424l-103 113q45 40 78 86t47.5 97t14.5 99v29h-115v338h287v-326q0 -114 -37 -206t-86 -146t-86 -84z" />
    <glyph glyph-name="perthousand" unicode="&#x2030;" horiz-adv-x="2621" 
d="M475 -37l653 1534h207l-651 -1534h-209zM1409 -37q-89 0 -153.5 31.5t-106.5 91t-62 146t-20 196.5q0 108 20 194t62 145t106.5 90.5t153.5 31.5q132 0 211.5 -67.5t105 -176.5t25.5 -217q0 -172 -45.5 -278.5t-125.5 -146.5t-171 -40zM2218 -37q-89 0 -153.5 31.5
t-106.5 91t-62 146t-20 196.5q0 108 20 194t62 145t106.5 90.5t153.5 31.5q132 0 211.5 -67.5t105 -176.5t25.5 -217q0 -172 -45.5 -278.5t-125.5 -146.5t-171 -40zM1409 154q49 0 77.5 32.5t40 97t11.5 142.5q0 77 -8.5 129t-25 84t-40.5 45.5t-55 13.5q-48 0 -78 -35
t-39.5 -97.5t-9.5 -139.5q0 -78 8.5 -130t25 -83.5t40 -45t53.5 -13.5zM2218 154q49 0 77.5 32.5t40 97t11.5 142.5q0 77 -8.5 129t-25 84t-40.5 45.5t-55 13.5q-48 0 -78 -35t-39.5 -97.5t-9.5 -139.5q0 -78 8.5 -130t25 -83.5t40 -45t53.5 -13.5zM403 571
q-89 0 -153.5 31.5t-106.5 91t-62 145.5t-20 195t20 195t62 145.5t106.5 91t153.5 31.5q133 0 212 -68.5t104.5 -177t25.5 -217.5t-19.5 -195t-61 -145.5t-106 -91t-155.5 -31.5zM403 762q49 0 78 33t40 96.5t11 140.5q0 111 -18.5 175t-49 82t-61.5 18q-30 0 -53.5 -14
t-40 -46t-25 -84.5t-8.5 -130.5q0 -77 8.5 -128.5t25 -83t40 -45t53.5 -13.5z" />
    <glyph glyph-name="Acircumflex" unicode="&#xc2;" horiz-adv-x="1192" 
d="M0 0l408 1544h378l406 -1544h-293l-82 328h-463l-80 -328h-274zM414 567h344l-172 695zM258 1639l219 272h252l219 -272h-229l-117 123l-117 -123h-227z" />
    <glyph glyph-name="Ecircumflex" unicode="&#xca;" horiz-adv-x="1118" 
d="M131 0v1544h885v-246h-590v-391h555v-241h-555v-420h618v-246h-913zM225 1639l219 272h252l219 -272h-229l-117 123l-117 -123h-227z" />
    <glyph glyph-name="Aacute" unicode="&#xc1;" horiz-adv-x="1192" 
d="M0 0l408 1544h378l406 -1544h-293l-82 328h-463l-80 -328h-274zM414 567h344l-172 695zM479 1639l193 272h286l-253 -272h-226z" />
    <glyph glyph-name="Edieresis" unicode="&#xcb;" horiz-adv-x="1118" 
d="M131 0v1544h885v-246h-590v-391h555v-241h-555v-420h618v-246h-913zM240 1639v272h244v-272h-244zM652 1639v272h243v-272h-243z" />
    <glyph glyph-name="Egrave" unicode="&#xc8;" horiz-adv-x="1118" 
d="M131 0v1544h885v-246h-590v-391h555v-241h-555v-420h618v-246h-913zM514 1639l-254 272h285l194 -272h-225z" />
    <glyph glyph-name="Iacute" unicode="&#xcd;" horiz-adv-x="557" 
d="M131 0v1544h295v-1544h-295zM180 1639l193 272h286l-253 -272h-226z" />
    <glyph glyph-name="Icircumflex" unicode="&#xce;" horiz-adv-x="557" 
d="M131 0v1544h295v-1544h-295zM-64 1639l219 272h252l219 -272h-229l-117 123l-117 -123h-227z" />
    <glyph glyph-name="Idieresis" unicode="&#xcf;" horiz-adv-x="557" 
d="M131 0v1544h295v-1544h-295zM-48 1639v272h244v-272h-244zM364 1639v272h243v-272h-243z" />
    <glyph glyph-name="Igrave" unicode="&#xcc;" horiz-adv-x="557" 
d="M131 0v1544h295v-1544h-295zM187 1639l-254 272h285l194 -272h-225z" />
    <glyph glyph-name="Oacute" unicode="&#xd3;" horiz-adv-x="1341" 
d="M670 -31q-138 0 -245.5 50.5t-181.5 151t-112.5 250.5t-38.5 349q0 201 38.5 351.5t112.5 251.5t181.5 151.5t245.5 50.5q137 0 244.5 -50.5t182 -151.5t113.5 -251.5t39 -351.5q0 -199 -39 -349t-113.5 -250.5t-182 -151t-244.5 -50.5zM670 221q135 0 206.5 137
t71.5 412q0 278 -71.5 415.5t-206.5 137.5q-136 0 -207.5 -137.5t-71.5 -415.5q0 -275 71.5 -412t207.5 -137zM549 1639l193 272h286l-253 -272h-226z" />
    <glyph glyph-name="Ocircumflex" unicode="&#xd4;" horiz-adv-x="1341" 
d="M670 -31q-138 0 -245.5 50.5t-181.5 151t-112.5 250.5t-38.5 349q0 201 38.5 351.5t112.5 251.5t181.5 151.5t245.5 50.5q137 0 244.5 -50.5t182 -151.5t113.5 -251.5t39 -351.5q0 -199 -39 -349t-113.5 -250.5t-182 -151t-244.5 -50.5zM670 221q135 0 206.5 137
t71.5 412q0 278 -71.5 415.5t-206.5 137.5q-136 0 -207.5 -137.5t-71.5 -415.5q0 -275 71.5 -412t207.5 -137zM326 1639l219 272h252l219 -272h-229l-117 123l-117 -123h-227z" />
    <glyph glyph-name="Ograve" unicode="&#xd2;" horiz-adv-x="1341" 
d="M670 -31q-138 0 -245.5 50.5t-181.5 151t-112.5 250.5t-38.5 349q0 201 38.5 351.5t112.5 251.5t181.5 151.5t245.5 50.5q137 0 244.5 -50.5t182 -151.5t113.5 -251.5t39 -351.5q0 -199 -39 -349t-113.5 -250.5t-182 -151t-244.5 -50.5zM670 221q135 0 206.5 137
t71.5 412q0 278 -71.5 415.5t-206.5 137.5q-136 0 -207.5 -137.5t-71.5 -415.5q0 -275 71.5 -412t207.5 -137zM616 1639l-254 272h285l194 -272h-225z" />
    <glyph glyph-name="Uacute" unicode="&#xda;" horiz-adv-x="1247" 
d="M625 -37q-134 0 -230 38.5t-158 111.5t-91 177.5t-29 235.5v1018h295v-1014q0 -83 12.5 -141.5t39 -96t66.5 -54.5t95 -17q109 0 160 72.5t51 236.5v1014h294v-1018q0 -131 -29 -235.5t-90 -177.5t-157 -111.5t-229 -38.5zM497 1639l193 272h286l-253 -272h-226z" />
    <glyph glyph-name="Ucircumflex" unicode="&#xdb;" horiz-adv-x="1247" 
d="M625 -37q-134 0 -230 38.5t-158 111.5t-91 177.5t-29 235.5v1018h295v-1014q0 -83 12.5 -141.5t39 -96t66.5 -54.5t95 -17q109 0 160 72.5t51 236.5v1014h294v-1018q0 -131 -29 -235.5t-90 -177.5t-157 -111.5t-229 -38.5zM270 1639l219 272h252l219 -272h-229l-117 123
l-117 -123h-227z" />
    <glyph glyph-name="Ugrave" unicode="&#xd9;" horiz-adv-x="1247" 
d="M625 -37q-134 0 -230 38.5t-158 111.5t-91 177.5t-29 235.5v1018h295v-1014q0 -83 12.5 -141.5t39 -96t66.5 -54.5t95 -17q109 0 160 72.5t51 236.5v1014h294v-1018q0 -131 -29 -235.5t-90 -177.5t-157 -111.5t-229 -38.5zM555 1639l-254 272h285l194 -272h-225z" />
    <glyph glyph-name="dotlessi" unicode="&#x131;" horiz-adv-x="504" 
d="M111 0v1081h282v-1081h-282z" />
    <glyph glyph-name="circumflex" unicode="&#x2c6;" horiz-adv-x="788" 
d="M41 1272l219 272h252l219 -272h-229l-117 123l-117 -123h-227z" />
    <glyph glyph-name="tilde" unicode="&#x2dc;" horiz-adv-x="793" 
d="M530 1257q-19 0 -36.5 2.5t-35.5 9.5t-38.5 19t-46.5 31l-37 27q-39 24 -62 24q-27 0 -43.5 -22t-25.5 -68l-158 31q14 99 51.5 161t81 81.5t78.5 19.5q40 0 72 -11.5t73 -39.5l56 -37q37 -27 61 -27q25 0 40.5 18.5t25.5 77.5l157 -30q-9 -65 -28 -119t-47 -86
q-26 -31 -62.5 -46.5t-75.5 -15.5z" />
    <glyph glyph-name="macron" unicode="&#xaf;" horiz-adv-x="784" 
d="M41 1311v194h700v-194h-700z" />
    <glyph glyph-name="macron" unicode="&#x2c9;" horiz-adv-x="784" 
d="M41 1311v194h700v-194h-700z" />
    <glyph glyph-name="breve" unicode="&#x2d8;" horiz-adv-x="811" 
d="M406 1262q-71 0 -128.5 21.5t-98 60.5t-63.5 92.5t-24 117.5h184q5 -32 20 -59t44 -40t66 -13q46 0 76.5 21t40 47t12.5 44h184q-2 -64 -24.5 -117.5t-63 -92.5t-98 -60.5t-127.5 -21.5z" />
    <glyph glyph-name="dotaccent" unicode="&#x2d9;" horiz-adv-x="893" 
d="M338 1272v272h217v-272h-217z" />
    <glyph glyph-name="ring" unicode="&#x2da;" horiz-adv-x="842" 
d="M420 1262q-53 0 -94.5 18.5t-70.5 50.5t-44.5 75t-15.5 93q0 77 34.5 134t86 80.5t104.5 23.5q76 0 130.5 -38t75.5 -94t21 -106t-15.5 -93t-44.5 -75t-71 -50.5t-96 -18.5zM420 1376q38 0 62 20.5t32 49.5t8 53q0 39 -13.5 68t-37.5 42t-51 13q-39 0 -63.5 -21.5
t-32 -49.5t-7.5 -52t6 -46t18.5 -39t32 -27.5t46.5 -10.5z" />
    <glyph glyph-name="cedilla" unicode="&#xb8;" horiz-adv-x="862" 
d="M246 -393l176 272h194l-124 -272h-246z" />
    <glyph glyph-name="hungarumlaut" unicode="&#x2dd;" horiz-adv-x="788" 
d="M45 1272l127 272h225l-186 -272h-166zM389 1272l127 272h225l-186 -272h-166z" />
    <glyph glyph-name="ogonek" unicode="&#x2db;" horiz-adv-x="858" 
d="M426 -393q-60 0 -108.5 24.5t-68.5 68.5t-20 93q0 69 24.5 121t59.5 86h133q-32 -35 -45.5 -67.5t-13.5 -75.5q0 -38 21.5 -61t58.5 -23t64 12.5t44 26.5l52 -144q-19 -15 -54 -30t-74.5 -23t-72.5 -8z" />
    <glyph glyph-name="caron" unicode="&#x2c7;" horiz-adv-x="788" 
d="M268 1272l-219 272h230l114 -123l117 123h229l-219 -272h-252z" />
    <glyph glyph-name="Scaron" unicode="&#x160;" horiz-adv-x="1174" 
d="M592 -31q-115 0 -204.5 24.5t-155.5 80t-110 144.5t-69 218l281 60q10 -72 27 -125t45.5 -87t72 -50.5t107.5 -16.5q77 0 126.5 31t65 78.5t15.5 89.5q0 56 -22 100.5t-63.5 74t-89.5 44.5l-167 51q-67 20 -131 48.5t-113.5 77.5t-80 124t-30.5 188q0 117 38.5 202
t103.5 140.5t152 82t185 26.5q155 0 260 -51.5t160.5 -149t81.5 -211.5l-268 -76q-16 78 -44.5 131t-77.5 82t-105 29q-105 0 -150 -50.5t-45 -137.5q0 -58 20 -100t61 -67t93 -40l209 -60q88 -24 146.5 -63.5t95.5 -93.5q75 -109 75 -285q0 -102 -30.5 -187t-92.5 -146.5
t-155 -95.5t-217 -34zM463 1639l-219 272h230l114 -123l117 123h229l-219 -272h-252z" />
    <glyph glyph-name="scaron" unicode="&#x161;" horiz-adv-x="926" 
d="M455 -31q-178 0 -280 75.5t-134 223.5l248 64q11 -54 30.5 -87.5t50 -47t72.5 -13.5q71 0 100 30.5t29 80.5q0 38 -17.5 62.5t-46 39t-56.5 23.5l-121 41q-51 18 -98 42.5t-82.5 62t-56.5 89.5t-21 125q0 120 58.5 198.5t149 106t173.5 27.5q108 0 193 -31.5t140 -109.5
q29 -41 52 -111l-238 -78q-11 43 -31 70.5t-49 39t-59 11.5q-65 0 -92 -30t-27 -74q0 -35 31.5 -65t93.5 -50l127 -43q99 -35 155 -81t77.5 -112t21.5 -139q0 -117 -57.5 -197t-149.5 -111.5t-186 -31.5zM350 1272l-219 272h230l114 -123l117 123h229l-219 -272h-252z" />
    <glyph glyph-name="Yacute" unicode="&#xdd;" horiz-adv-x="1094" 
d="M399 0v641l-399 903h297l258 -612l258 612h281l-400 -903v-641h-295zM463 1639l193 272h286l-253 -272h-226z" />
    <glyph glyph-name="yacute" unicode="&#xfd;" horiz-adv-x="936" 
d="M279 -424q-110 0 -218 35l33 213q52 -19 111 -19q50 0 82 27q36 35 51 92l16 62l-354 1095h287l198 -708l177 708h274l-336 -1192q-25 -88 -53.5 -146t-63.5 -93q-40 -40 -91.5 -57t-112.5 -17zM364 1272l193 272h286l-253 -272h-226z" />
    <glyph glyph-name="Thorn" unicode="&#xde;" horiz-adv-x="1186" 
d="M131 0v1544h287v-266h252q106 0 187 -32.5t136 -95t83 -153t28 -206.5t-33 -207t-93 -154t-144.5 -96t-188.5 -33h-227v-301h-287zM418 535h170q50 0 91 18.5t70.5 52.5t45.5 82t16 107q0 118 -57 183.5t-166 65.5h-170v-509z" />
    <glyph glyph-name="thorn" unicode="&#xfe;" horiz-adv-x="1055" 
d="M111 -393v1937h282v-569q29 49 63.5 78t82 44t98.5 15q111 0 190.5 -67t115.5 -197t36 -289q0 -120 -19 -227t-62 -187.5t-112.5 -128t-171.5 -47.5q-67 0 -114.5 24.5t-71 54.5t-35.5 54v-495h-282zM541 190q73 0 112 85t39 264q0 181 -39 266.5t-112 85.5t-113.5 -85.5
t-40.5 -266.5q0 -179 40.5 -264t113.5 -85z" />
    <glyph glyph-name="Zcaron" unicode="&#x17d;" horiz-adv-x="1081" 
d="M53 0v238l637 1060h-588v246h902v-237l-635 -1061h659v-246h-975zM448 1639l-219 272h230l114 -123l117 123h229l-219 -272h-252z" />
    <glyph glyph-name="zcaron" unicode="&#x17e;" horiz-adv-x="858" 
d="M53 0v203l436 653h-409v225h706v-202l-438 -656h457v-223h-752zM329 1272l-219 272h230l114 -123l117 123h229l-219 -272h-252z" />
    <glyph glyph-name="onehalf" unicode="&#xbd;" horiz-adv-x="1810" 
d="M391 -37l651 1534h209l-653 -1534h-207zM1022 -16v61q0 90 52.5 169t112 126.5t93.5 71.5q37 27 69.5 50t56.5 46t38 48.5t14 57.5q0 44 -25.5 70.5t-82.5 26.5q-48 0 -77 -26t-37 -60t-11 -58l-209 23q13 106 64 176t127 96.5t157 26.5q116 0 190.5 -40.5t100.5 -103
t26 -122.5q0 -72 -32.5 -130.5t-72.5 -94.5t-67 -56q-21 -15 -49.5 -34.5t-58 -41t-56 -43.5t-42.5 -43h370v-196h-651zM272 592v620q-37 -24 -82.5 -46.5t-89.5 -39.5l-73 170q87 41 162 88.5t128 92.5h168v-885h-213z" />
    <glyph glyph-name="onequarter" unicode="&#xbc;" horiz-adv-x="1810" 
d="M403 -37l654 1534h207l-652 -1534h-209zM1374 -16v168h-405v188l389 528h219v-540h86v-176h-86v-168h-203zM1165 328h209v288zM272 592v620q-37 -24 -82.5 -46.5t-89.5 -39.5l-73 170q87 41 162 88.5t128 92.5h168v-885h-213z" />
    <glyph glyph-name="onesuperior" unicode="&#xb9;" horiz-adv-x="815" 
d="M326 592v620q-38 -24 -83.5 -46.5t-88.5 -39.5l-74 170q87 41 160.5 87.5t130.5 93.5h168v-885h-213z" />
    <glyph glyph-name="threequarters" unicode="&#xbe;" horiz-adv-x="1810" 
d="M520 -37l654 1534h206l-651 -1534h-209zM1454 -16v168h-405v188l389 528h219v-540h86v-176h-86v-168h-203zM1245 328h209v288zM410 571q-87 0 -149.5 21t-110.5 67q-39 38 -60.5 91.5t-21.5 126.5l208 26q3 -32 11.5 -58.5t24 -46.5t40 -31t58.5 -11t57.5 7.5t42.5 29.5
q11 12 16.5 27t5.5 38q0 48 -35.5 73t-103.5 25h-28v177q63 0 102 17t50 42.5t11 46.5q0 17 -5.5 30.5t-14.5 24.5q-30 33 -94 33q-35 0 -58 -12.5t-37 -32t-21.5 -42t-10.5 -42.5l-207 27q12 90 62.5 156t123 91t150.5 25q97 0 157.5 -19t98.5 -53q28 -26 45 -53t22.5 -60
t5.5 -65q0 -71 -38 -122t-101 -78q72 -19 111 -72.5t39 -130.5q0 -128 -87.5 -200.5t-258.5 -72.5z" />
    <glyph glyph-name="threesuperior" unicode="&#xb3;" horiz-adv-x="815" 
d="M410 571q-87 0 -149.5 21t-110.5 67q-39 38 -60.5 91.5t-21.5 126.5l208 26q3 -32 11.5 -58.5t24 -46.5t40 -31t58.5 -11t57.5 7.5t42.5 29.5q11 12 16.5 27t5.5 38q0 48 -35.5 73t-103.5 25h-28v177q63 0 102 17t50 42.5t11 46.5q0 17 -5.5 30.5t-14.5 24.5
q-30 33 -94 33q-35 0 -58 -12.5t-37 -32t-21.5 -42t-10.5 -42.5l-207 27q12 90 62.5 156t123 91t150.5 25q97 0 157.5 -19t98.5 -53q28 -26 45 -53t22.5 -60t5.5 -65q0 -71 -38 -122t-101 -78q72 -19 111 -72.5t39 -130.5q0 -128 -87.5 -200.5t-258.5 -72.5z" />
    <glyph glyph-name="twosuperior" unicode="&#xb2;" horiz-adv-x="815" 
d="M84 592v61q0 90 52.5 169t112.5 127t93 71q37 27 69.5 50.5t56.5 46.5t38 48.5t14 57.5q0 43 -25.5 69.5t-82.5 26.5q-48 0 -77 -26.5t-37 -59.5t-11 -57l-209 22q13 106 64 176t126.5 96.5t157.5 26.5q79 0 138.5 -19t99 -53.5t59.5 -83.5t20 -110q0 -72 -32 -129.5
t-72 -93.5t-68 -58q-21 -15 -49.5 -34.5t-58 -41t-56 -43.5t-42.5 -43h370v-196h-651z" />
    <glyph glyph-name="brokenbar" unicode="&#xa6;" horiz-adv-x="489" 
d="M127 0v514h235v-514h-235zM127 1030v514h235v-514h-235z" />
    <glyph glyph-name="minus" unicode="&#x2212;" 
d="M96 604v254h905v-254h-905z" />
    <glyph glyph-name="multiply" unicode="&#xd7;" 
d="M324 213l-197 141l272 367l-272 369l192 145l232 -315l229 315l193 -145l-273 -369l273 -367l-197 -141l-225 309z" />
    <glyph glyph-name="lslash" unicode="&#x142;" horiz-adv-x="504" 
d="M111 0v532l-107 -100v213l107 100v799h282v-530l105 98v-211l-105 -98v-803h-282z" />
    <glyph glyph-name="fraction" unicode="&#x2215;" horiz-adv-x="197" 
d="M-332 -37l654 1534h206l-651 -1534h-209z" />
    <glyph glyph-name="amacron" unicode="&#x101;" horiz-adv-x="975" 
d="M367 -31q-75 0 -131 23t-93.5 64.5t-56 100t-18.5 130.5q0 94 24 156t64.5 102t94 62t111.5 36l238 55v82q0 51 -27.5 82t-87.5 31q-48 0 -78.5 -20t-43 -47.5t-21.5 -53.5l-240 72q21 73 71.5 136.5t134.5 97.5t190 34q132 0 218.5 -41.5t121 -122t34.5 -178.5v-537
q0 -58 8 -118.5t25 -114.5h-258q-16 76 -18 111q-37 -54 -76 -84t-87.5 -44t-98.5 -14zM451 176q52 0 88 28t48.5 67.5t12.5 76.5v150l-129 -33q-68 -17 -99.5 -57t-31.5 -105q0 -43 14.5 -73t40.5 -42t56 -12zM139 1311v194h700v-194h-700z" />
    <glyph glyph-name="Abreve" unicode="&#x102;" horiz-adv-x="1192" 
d="M0 0l408 1544h378l406 -1544h-293l-82 328h-463l-80 -328h-274zM414 567h344l-172 695zM592 1629q-71 0 -128.5 21.5t-98 60.5t-63.5 92.5t-24 117.5h184q5 -32 20 -59t44 -40t66 -13q46 0 76.5 21t40 47t12.5 44h184q-2 -64 -24.5 -117.5t-63 -92.5t-98 -60.5
t-127.5 -21.5z" />
    <glyph glyph-name="abreve" unicode="&#x103;" horiz-adv-x="975" 
d="M367 -31q-75 0 -131 23t-93.5 64.5t-56 100t-18.5 130.5q0 94 24 156t64.5 102t94 62t111.5 36l238 55v82q0 51 -27.5 82t-87.5 31q-48 0 -78.5 -20t-43 -47.5t-21.5 -53.5l-240 72q21 73 71.5 136.5t134.5 97.5t190 34q132 0 218.5 -41.5t121 -122t34.5 -178.5v-537
q0 -58 8 -118.5t25 -114.5h-258q-16 76 -18 111q-37 -54 -76 -84t-87.5 -44t-98.5 -14zM451 176q52 0 88 28t48.5 67.5t12.5 76.5v150l-129 -33q-68 -17 -99.5 -57t-31.5 -105q0 -43 14.5 -73t40.5 -42t56 -12zM496 1262q-71 0 -128.5 21.5t-98 60.5t-63.5 92.5t-24 117.5
h184q5 -32 20 -59t44 -40t66 -13q46 0 76.5 21t40 47t12.5 44h184q-2 -64 -24.5 -117.5t-63 -92.5t-98 -60.5t-127.5 -21.5z" />
    <glyph glyph-name="Aogonek" unicode="&#x104;" horiz-adv-x="1192" 
d="M0 0l408 1544h378l406 -1544h-293l-82 328h-463l-80 -328h-274zM414 567h344l-172 695zM1012 -393q-60 0 -108.5 24.5t-68.5 68.5t-20 93q0 69 24.5 121t59.5 86h133q-32 -35 -45.5 -67.5t-13.5 -75.5q0 -38 21.5 -61t58.5 -23t64 12.5t44 26.5l52 -144q-19 -15 -54 -30
t-74.5 -23t-72.5 -8z" />
    <glyph glyph-name="aogonek" unicode="&#x105;" horiz-adv-x="975" 
d="M367 -31q-75 0 -131 23t-93.5 64.5t-56 100t-18.5 130.5q0 94 24 156t64.5 102t94 62t111.5 36l238 55v82q0 51 -27.5 82t-87.5 31q-48 0 -78.5 -20t-43 -47.5t-21.5 -53.5l-240 72q21 73 71.5 136.5t134.5 97.5t190 34q132 0 218.5 -41.5t121 -122t34.5 -178.5v-537
q0 -58 8 -118.5t25 -114.5h-258q-16 76 -18 111q-37 -54 -76 -84t-87.5 -44t-98.5 -14zM451 176q52 0 88 28t48.5 67.5t12.5 76.5v150l-129 -33q-68 -17 -99.5 -57t-31.5 -105q0 -43 14.5 -73t40.5 -42t56 -12zM760 -393q-60 0 -108.5 24.5t-68.5 68.5t-20 93q0 69 24.5 121
t59.5 86h133q-32 -35 -45.5 -67.5t-13.5 -75.5q0 -38 21.5 -61t58.5 -23t64 12.5t44 26.5l52 -144q-19 -15 -54 -30t-74.5 -23t-72.5 -8z" />
    <glyph glyph-name="Cacute" unicode="&#x106;" horiz-adv-x="1257" 
d="M641 -31q-128 0 -229.5 44t-172.5 139.5t-109 245.5t-38 362q0 201 37.5 353.5t109.5 255t177 154.5t241 52q164 0 276.5 -65.5t167.5 -182t75 -248.5l-295 -59q-19 121 -56 191t-84.5 91t-89.5 21q-134 0 -197 -143.5t-63 -425.5q0 -146 17 -247.5t49.5 -165t80 -92
t109.5 -28.5q74 0 126.5 42t79.5 126.5t36 188.5l299 -37q-22 -149 -65 -256.5t-109.5 -178t-159 -104t-213.5 -33.5zM520 1639l193 272h286l-253 -272h-226z" />
    <glyph glyph-name="cacute" unicode="&#x107;" horiz-adv-x="956" 
d="M504 -31q-113 0 -194 40.5t-133 115t-76.5 179.5t-24.5 233q0 123 26 228.5t79 182.5t135 120.5t194 43.5q119 0 204 -48t128.5 -132t58.5 -178l-264 -52q-9 82 -39 129.5t-90 47.5q-33 0 -60.5 -17.5t-47.5 -57t-31 -104.5t-11 -159q0 -177 35.5 -257.5t112.5 -80.5
q64 0 96 53t43 145l266 -53q-34 -156 -107 -244t-154.5 -111.5t-145.5 -23.5zM364 1272l193 272h286l-253 -272h-226z" />
    <glyph glyph-name="Ccircumflex" unicode="&#x108;" horiz-adv-x="1257" 
d="M641 -31q-128 0 -229.5 44t-172.5 139.5t-109 245.5t-38 362q0 201 37.5 353.5t109.5 255t177 154.5t241 52q164 0 276.5 -65.5t167.5 -182t75 -248.5l-295 -59q-19 121 -56 191t-84.5 91t-89.5 21q-134 0 -197 -143.5t-63 -425.5q0 -146 17 -247.5t49.5 -165t80 -92
t109.5 -28.5q74 0 126.5 42t79.5 126.5t36 188.5l299 -37q-22 -149 -65 -256.5t-109.5 -178t-159 -104t-213.5 -33.5zM303 1639l219 272h252l219 -272h-229l-117 123l-117 -123h-227z" />
    <glyph glyph-name="ccircumflex" unicode="&#x109;" horiz-adv-x="956" 
d="M504 -31q-113 0 -194 40.5t-133 115t-76.5 179.5t-24.5 233q0 123 26 228.5t79 182.5t135 120.5t194 43.5q119 0 204 -48t128.5 -132t58.5 -178l-264 -52q-9 82 -39 129.5t-90 47.5q-33 0 -60.5 -17.5t-47.5 -57t-31 -104.5t-11 -159q0 -177 35.5 -257.5t112.5 -80.5
q64 0 96 53t43 145l266 -53q-34 -156 -107 -244t-154.5 -111.5t-145.5 -23.5zM156 1272l219 272h252l219 -272h-229l-117 123l-117 -123h-227z" />
    <glyph glyph-name="Ccaron" unicode="&#x10c;" horiz-adv-x="1257" 
d="M641 -31q-128 0 -229.5 44t-172.5 139.5t-109 245.5t-38 362q0 201 37.5 353.5t109.5 255t177 154.5t241 52q164 0 276.5 -65.5t167.5 -182t75 -248.5l-295 -59q-19 121 -56 191t-84.5 91t-89.5 21q-134 0 -197 -143.5t-63 -425.5q0 -146 17 -247.5t49.5 -165t80 -92
t109.5 -28.5q74 0 126.5 42t79.5 126.5t36 188.5l299 -37q-22 -149 -65 -256.5t-109.5 -178t-159 -104t-213.5 -33.5zM528 1639l-219 272h230l114 -123l117 123h229l-219 -272h-252z" />
    <glyph glyph-name="ccaron" unicode="&#x10d;" horiz-adv-x="956" 
d="M504 -31q-113 0 -194 40.5t-133 115t-76.5 179.5t-24.5 233q0 123 26 228.5t79 182.5t135 120.5t194 43.5q119 0 204 -48t128.5 -132t58.5 -178l-264 -52q-9 82 -39 129.5t-90 47.5q-33 0 -60.5 -17.5t-47.5 -57t-31 -104.5t-11 -159q0 -177 35.5 -257.5t112.5 -80.5
q64 0 96 53t43 145l266 -53q-34 -156 -107 -244t-154.5 -111.5t-145.5 -23.5zM377 1272l-219 272h230l114 -123l117 123h229l-219 -272h-252z" />
    <glyph glyph-name="Dcaron" unicode="&#x10e;" horiz-adv-x="1251" 
d="M131 0v1544h416q157 0 272.5 -44t191 -137t112 -238t36.5 -347t-36.5 -348.5t-112 -242t-191 -141.5t-272.5 -46h-416zM426 242h137q115 0 183 77t91 203.5t23 255.5q0 127 -16.5 224.5t-51.5 164.5t-91 101.5t-134 34.5h-141v-1061zM440 1639l-219 272h230l114 -123
l117 123h229l-219 -272h-252z" />
    <glyph glyph-name="dcaron" unicode="&#x10f;" horiz-adv-x="1055" 
d="M434 -31q-90 0 -157 42t-111.5 118.5t-67 183t-22.5 236.5q0 150 25.5 256.5t71 174.5t109.5 100t142 32q70 0 118 -23.5t76 -55.5t44 -58v569h282v-1544h-262l-8 129q-24 -55 -60.5 -92.5t-83.5 -52.5t-96 -15zM514 188q73 0 113.5 86t40.5 265q0 181 -40.5 265.5
t-113.5 84.5q-72 0 -112 -84.5t-40 -265.5q0 -179 40 -265t112 -86zM1026 1169v375h203l-60 -375h-143z" />
    <glyph glyph-name="Dmacron" unicode="&#x110;" horiz-adv-x="1251" 
d="M131 0v686h-115v199h115v659h416q157 0 272.5 -44t191 -137t112 -238t36.5 -347t-36.5 -348.5t-112 -242t-191 -141.5t-272.5 -46h-416zM426 242h137q115 0 183 77t91 203.5t23 255.5q0 127 -16.5 224.5t-51.5 164.5t-91 101.5t-134 34.5h-141v-418h236v-199h-236v-444z
" />
    <glyph glyph-name="dmacron" unicode="&#x111;" horiz-adv-x="1055" 
d="M350 1216v194h312v134h282v-134h106v-194h-106v-1216h-262l-8 129q-24 -55 -60.5 -92.5t-83.5 -52.5t-96 -15q-90 0 -157 42t-111.5 118.5t-67 183t-22.5 236.5q0 150 25.5 256.5t71 174.5t109.5 100t142 32q70 0 118 -23.5t76 -55.5t44 -58v241h-312zM514 188
q73 0 113.5 86t40.5 265q0 181 -40.5 265.5t-113.5 84.5q-72 0 -112 -84.5t-40 -265.5q0 -179 40 -265t112 -86z" />
    <glyph glyph-name="Emacron" unicode="&#x112;" horiz-adv-x="1118" 
d="M131 0v1544h885v-246h-590v-391h555v-241h-555v-420h618v-246h-913zM219 1678v194h700v-194h-700z" />
    <glyph glyph-name="emacron" unicode="&#x113;" horiz-adv-x="995" 
d="M506 -31q-110 0 -191 39.5t-134 113t-79 179.5t-26 238q0 128 26.5 233.5t80.5 181t135 117t190 41.5q100 0 178 -32t132 -96t82 -159t28 -221v-127h-574q3 -140 43 -210t121 -70q63 0 98.5 36t55.5 93l229 -93q-32 -101 -99.5 -162t-147 -81.5t-148.5 -20.5zM354 653
h297q-3 246 -145 246q-68 0 -108.5 -61t-43.5 -185zM154 1311v194h700v-194h-700z" />
    <glyph glyph-name="Edot" unicode="&#x116;" horiz-adv-x="1118" 
d="M131 0v1544h885v-246h-590v-391h555v-241h-555v-420h618v-246h-913zM479 1639v272h217v-272h-217z" />
    <glyph glyph-name="edot" unicode="&#x117;" horiz-adv-x="995" 
d="M506 -31q-110 0 -191 39.5t-134 113t-79 179.5t-26 238q0 128 26.5 233.5t80.5 181t135 117t190 41.5q100 0 178 -32t132 -96t82 -159t28 -221v-127h-574q3 -140 43 -210t121 -70q63 0 98.5 36t55.5 93l229 -93q-32 -101 -99.5 -162t-147 -81.5t-148.5 -20.5zM354 653
h297q-3 246 -145 246q-68 0 -108.5 -61t-43.5 -185zM401 1272v272h217v-272h-217z" />
    <glyph glyph-name="Eogonek" unicode="&#x118;" horiz-adv-x="1118" 
d="M131 0v1544h885v-246h-590v-391h555v-241h-555v-420h618v-246h-913zM872 -393q-60 0 -108.5 24.5t-68.5 68.5t-20 93q0 69 24.5 121t59.5 86h133q-32 -35 -45.5 -67.5t-13.5 -75.5q0 -38 21.5 -61t58.5 -23t64 12.5t44 26.5l52 -144q-19 -15 -54 -30t-74.5 -23t-72.5 -8z
" />
    <glyph glyph-name="eogonek" unicode="&#x119;" horiz-adv-x="995" 
d="M537 -393q-60 0 -108.5 24.5t-68.5 68.5t-20 93q0 69 24 121q18 37 40 65q-48 10 -89 29q-81 40 -134 113.5t-79 179.5t-26 238q0 128 26.5 233.5t80.5 181t135 117t190 41.5q100 0 178 -32t132 -96t82 -159t28 -221v-127h-574q3 -140 43 -210t121 -70q63 0 98.5 36
t55.5 93l229 -93q-32 -101 -99.5 -162t-147.5 -81q-64 -17 -122 -20q-13 -19 -21 -37q-13 -33 -13 -76q0 -38 21.5 -61t58.5 -23t64 12.5t44 26.5l52 -144q-19 -15 -54 -30t-74.5 -23t-72.5 -8zM354 653h297q-3 246 -145 246q-68 0 -108.5 -61t-43.5 -185z" />
    <glyph glyph-name="Ecaron" unicode="&#x11a;" horiz-adv-x="1118" 
d="M131 0v1544h885v-246h-590v-391h555v-241h-555v-420h618v-246h-913zM448 1639l-219 272h230l114 -123l117 123h229l-219 -272h-252z" />
    <glyph glyph-name="ecaron" unicode="&#x11b;" horiz-adv-x="995" 
d="M506 -31q-110 0 -191 39.5t-134 113t-79 179.5t-26 238q0 128 26.5 233.5t80.5 181t135 117t190 41.5q100 0 178 -32t132 -96t82 -159t28 -221v-127h-574q3 -140 43 -210t121 -70q63 0 98.5 36t55.5 93l229 -93q-32 -101 -99.5 -162t-147 -81.5t-148.5 -20.5zM354 653
h297q-3 246 -145 246q-68 0 -108.5 -61t-43.5 -185zM379 1272l-219 272h230l114 -123l117 123h229l-219 -272h-252z" />
    <glyph glyph-name="Gbreve" unicode="&#x11e;" horiz-adv-x="1286" 
d="M623 -31q-114 0 -211 43t-168.5 138t-111.5 245t-40 365q0 201 39 353.5t112.5 255t180.5 154.5t242 52q153 0 261 -52t167.5 -164.5t81.5 -254.5l-281 -60q-19 101 -54.5 166t-83 89t-98.5 24q-135 0 -201.5 -146t-66.5 -423q0 -275 70 -404t198 -129q48 0 90.5 16
t74 50.5t49.5 87.5t18 127v86h-170v217h457v-805h-187l-26 156q-56 -91 -140.5 -139t-201.5 -48zM660 1629q-71 0 -128.5 21.5t-98 60.5t-63.5 92.5t-24 117.5h184q5 -32 20 -59t44 -40t66 -13q46 0 76.5 21t40 47t12.5 44h184q-2 -64 -24.5 -117.5t-63 -92.5t-98 -60.5
t-127.5 -21.5z" />
    <glyph glyph-name="gbreve" unicode="&#x11f;" horiz-adv-x="1055" 
d="M502 -424q-78 0 -141.5 15.5t-113 42t-85 61.5t-56.5 74l220 112q8 -9 14 -17.5t14 -15.5q22 -21 56 -36t88 -15q35 0 65 10t51 31q23 22 35.5 60.5t12.5 109.5v150q-27 -46 -64.5 -77.5t-82.5 -44.5t-93 -13q-170 0 -258 131t-88 407q0 150 25 255t70 170.5t106.5 95.5
t134.5 30q76 0 129 -23t84 -61.5t49 -73.5l8 127h262v-1034q0 -101 -13.5 -173t-41 -116.5t-58.5 -74.5q-52 -51 -132 -79t-197 -28zM514 244q56 0 91 39t49 116.5t14 167.5q0 129 -23 204.5t-59 97.5t-72 22q-58 0 -93 -41t-47 -117t-12 -166t10 -151.5t29.5 -99.5t48 -55
t64.5 -17zM539 1262q-71 0 -128.5 21.5t-98 60.5t-63.5 92.5t-24 117.5h184q5 -32 20 -59t44 -40t66 -13q46 0 76.5 21t40 47t12.5 44h184q-2 -64 -24.5 -117.5t-63 -92.5t-98 -60.5t-127.5 -21.5z" />
    <glyph glyph-name="Gcedilla" unicode="&#x122;" horiz-adv-x="1286" 
d="M623 -31q-114 0 -211 43t-168.5 138t-111.5 245t-40 365q0 201 39 353.5t112.5 255t180.5 154.5t242 52q153 0 261 -52t167.5 -164.5t81.5 -254.5l-281 -60q-19 101 -54.5 166t-83 89t-98.5 24q-135 0 -201.5 -146t-66.5 -423q0 -275 70 -404t198 -129q48 0 90.5 16
t74 50.5t49.5 87.5t18 127v86h-170v217h457v-805h-187l-26 156q-56 -91 -140.5 -139t-201.5 -48zM418 -393l176 272h194l-124 -272h-246z" />
    <glyph glyph-name="gcedilla" unicode="&#x123;" horiz-adv-x="1055" 
d="M502 -424q-78 0 -141.5 15.5t-113 42t-85 61.5t-56.5 74l220 112q8 -9 14 -17.5t14 -15.5q22 -21 56 -36t88 -15q35 0 65 10t51 31q23 22 35.5 60.5t12.5 109.5v150q-27 -46 -64.5 -77.5t-82.5 -44.5t-93 -13q-170 0 -258 131t-88 407q0 150 25 255t70 170.5t106.5 95.5
t134.5 30q76 0 129 -23t84 -61.5t49 -73.5l8 127h262v-1034q0 -101 -13.5 -173t-41 -116.5t-58.5 -74.5q-52 -51 -132 -79t-197 -28zM514 244q56 0 91 39t49 116.5t14 167.5q0 129 -23 204.5t-59 97.5t-72 22q-58 0 -93 -41t-47 -117t-12 -166t10 -151.5t29.5 -99.5t48 -55
t64.5 -17zM430 1272l176 272h194l-124 -272h-246z" />
    <glyph glyph-name="Imacron" unicode="&#x12a;" horiz-adv-x="557" 
d="M131 0v1544h295v-1544h-295zM-67 1678v194h700v-194h-700z" />
    <glyph glyph-name="imacron" unicode="&#x12b;" horiz-adv-x="504" 
d="M111 0v1081h282v-1081h-282zM-95 1311v194h700v-194h-700z" />
    <glyph glyph-name="Iogonek" unicode="&#x12e;" horiz-adv-x="557" 
d="M131 0v1544h295v-1544h-295zM329 -393q-60 0 -108.5 24.5t-68.5 68.5t-20 93q0 69 24.5 121t59.5 86h133q-32 -35 -45.5 -67.5t-13.5 -75.5q0 -38 21.5 -61t58.5 -23t64 12.5t44 26.5l52 -144q-19 -15 -54 -30t-74.5 -23t-72.5 -8z" />
    <glyph glyph-name="iogonek" unicode="&#x12f;" horiz-adv-x="504" 
d="M111 0v1081h282v-1081h-282zM111 1278v266h282v-266h-282zM308 -393q-60 0 -108.5 24.5t-68.5 68.5t-20 93q0 69 24.5 121t59.5 86h133q-32 -35 -45.5 -67.5t-13.5 -75.5q0 -38 21.5 -61t58.5 -23t64 12.5t44 26.5l52 -144q-19 -15 -54 -30t-74.5 -23t-72.5 -8z" />
    <glyph glyph-name="Idotaccent" unicode="&#x130;" horiz-adv-x="557" 
d="M131 0v1544h295v-1544h-295zM175 1639v272h217v-272h-217z" />
    <glyph glyph-name="Kcedilla" unicode="&#x136;" horiz-adv-x="1171" 
d="M131 0v1544h295v-616l414 616h323l-399 -567l428 -977h-332l-297 707l-137 -195v-512h-295zM412 -393l176 272h194l-124 -272h-246z" />
    <glyph glyph-name="kcedilla" unicode="&#x137;" horiz-adv-x="989" 
d="M111 0v1544h282v-794l266 331h318l-281 -333l310 -748h-312l-200 522l-101 -123v-399h-282zM291 -393l176 272h194l-124 -272h-246z" />
    <glyph glyph-name="Lacute" unicode="&#x139;" horiz-adv-x="1030" 
d="M131 0v1544h295v-1298h573v-246h-868zM171 1639l193 272h286l-253 -272h-226z" />
    <glyph glyph-name="lacute" unicode="&#x13a;" horiz-adv-x="504" 
d="M111 0v1544h282v-1544h-282zM142 1639l193 272h286l-253 -272h-226z" />
    <glyph glyph-name="Lcedilla" unicode="&#x13b;" horiz-adv-x="1030" 
d="M131 0v1544h295v-1298h573v-246h-868zM350 -393l176 272h194l-124 -272h-246z" />
    <glyph glyph-name="lcedilla" unicode="&#x13c;" horiz-adv-x="504" 
d="M111 0v1544h282v-1544h-282zM-23 -393l176 272h194l-124 -272h-246z" />
    <glyph glyph-name="Lcaron" unicode="&#x13d;" horiz-adv-x="1030" 
d="M131 0v1544h295v-1298h573v-246h-868zM549 1169v375h203l-60 -375h-143z" />
    <glyph glyph-name="lcaron" unicode="&#x13e;" horiz-adv-x="504" 
d="M111 0v1544h282v-1544h-282zM473 1169v375h203l-60 -375h-143z" />
    <glyph glyph-name="Nacute" unicode="&#x143;" horiz-adv-x="1268" 
d="M131 0v1544h297l422 -1034v1034h287v-1544h-297l-422 1028v-1028h-287zM522 1639l193 272h286l-253 -272h-226z" />
    <glyph glyph-name="nacute" unicode="&#x144;" horiz-adv-x="1040" 
d="M111 0v1081h260l10 -131q18 32 42.5 61.5t57.5 52t75 35.5t93 13q127 0 199 -72q38 -38 60 -95t22 -148v-797h-283v711q0 45 -7.5 78t-27.5 55q-12 12 -31.5 20t-50.5 8q-71 0 -104 -66.5t-33 -187.5v-618h-282zM391 1272l193 272h286l-253 -272h-226z" />
    <glyph glyph-name="Ncedilla" unicode="&#x145;" horiz-adv-x="1268" 
d="M131 0v1544h297l422 -1034v1034h287v-1544h-297l-422 1028v-1028h-287zM402 -393l176 272h194l-124 -272h-246z" />
    <glyph glyph-name="ncedilla" unicode="&#x146;" horiz-adv-x="1040" 
d="M111 0v1081h260l10 -131q18 32 42.5 61.5t57.5 52t75 35.5t93 13q127 0 199 -72q38 -38 60 -95t22 -148v-797h-283v711q0 45 -7.5 78t-27.5 55q-12 12 -31.5 20t-50.5 8q-71 0 -104 -66.5t-33 -187.5v-618h-282zM279 -393l176 272h194l-124 -272h-246z" />
    <glyph glyph-name="Ncaron" unicode="&#x147;" horiz-adv-x="1268" 
d="M131 0v1544h297l422 -1034v1034h287v-1544h-297l-422 1028v-1028h-287zM506 1639l-219 272h230l114 -123l117 123h229l-219 -272h-252z" />
    <glyph glyph-name="ncaron" unicode="&#x148;" horiz-adv-x="1040" 
d="M111 0v1081h260l10 -131q18 32 42.5 61.5t57.5 52t75 35.5t93 13q127 0 199 -72q38 -38 60 -95t22 -148v-797h-283v711q0 45 -7.5 78t-27.5 55q-12 12 -31.5 20t-50.5 8q-71 0 -104 -66.5t-33 -187.5v-618h-282zM403 1272l-219 272h230l114 -123l117 123h229l-219 -272
h-252z" />
    <glyph glyph-name="Omacron" unicode="&#x14c;" horiz-adv-x="1341" 
d="M670 -31q-138 0 -245.5 50.5t-181.5 151t-112.5 250.5t-38.5 349q0 201 38.5 351.5t112.5 251.5t181.5 151.5t245.5 50.5q137 0 244.5 -50.5t182 -151.5t113.5 -251.5t39 -351.5q0 -199 -39 -349t-113.5 -250.5t-182 -151t-244.5 -50.5zM670 221q135 0 206.5 137
t71.5 412q0 278 -71.5 415.5t-206.5 137.5q-136 0 -207.5 -137.5t-71.5 -415.5q0 -275 71.5 -412t207.5 -137zM326 1678v194h700v-194h-700z" />
    <glyph glyph-name="omacron" unicode="&#x14d;" horiz-adv-x="1042" 
d="M520 -31q-117 0 -201 42t-138 117t-79.5 180t-25.5 231q0 127 25.5 232t79.5 181t138 118t201 42q167 0 272 -89t140 -223t35 -261q0 -126 -26.5 -231t-81.5 -180t-139.5 -117t-199.5 -42zM520 203q58 0 96 43.5t52 123.5t14 169q0 179 -42.5 259.5t-119.5 80.5
q-78 0 -120 -80.5t-42 -259.5q0 -89 10.5 -153t31.5 -104.5t51 -59.5t69 -19zM174 1311v194h700v-194h-700z" />
    <glyph glyph-name="Odblacute" unicode="&#x150;" horiz-adv-x="1341" 
d="M670 -31q-138 0 -245.5 50.5t-181.5 151t-112.5 250.5t-38.5 349q0 201 38.5 351.5t112.5 251.5t181.5 151.5t245.5 50.5q137 0 244.5 -50.5t182 -151.5t113.5 -251.5t39 -351.5q0 -199 -39 -349t-113.5 -250.5t-182 -151t-244.5 -50.5zM670 221q135 0 206.5 137
t71.5 412q0 278 -71.5 415.5t-206.5 137.5q-136 0 -207.5 -137.5t-71.5 -415.5q0 -275 71.5 -412t207.5 -137zM405 1639l127 272h225l-186 -272h-166zM749 1639l127 272h225l-186 -272h-166z" />
    <glyph glyph-name="odblacute" unicode="&#x151;" horiz-adv-x="1042" 
d="M520 -31q-117 0 -201 42t-138 117t-79.5 180t-25.5 231q0 127 25.5 232t79.5 181t138 118t201 42q167 0 272 -89t140 -223t35 -261q0 -126 -26.5 -231t-81.5 -180t-139.5 -117t-199.5 -42zM520 203q58 0 96 43.5t52 123.5t14 169q0 179 -42.5 259.5t-119.5 80.5
q-78 0 -120 -80.5t-42 -259.5q0 -89 10.5 -153t31.5 -104.5t51 -59.5t69 -19zM272 1272l127 272h225l-186 -272h-166zM616 1272l127 272h225l-186 -272h-166z" />
    <glyph glyph-name="Racute" unicode="&#x154;" horiz-adv-x="1219" 
d="M131 0v1544h541q220 0 330 -118t110 -351q0 -154 -58.5 -254.5t-158.5 -152.5l260 -668h-326l-215 614h-196v-614h-287zM418 848h184q100 0 154.5 55.5t54.5 179.5q0 119 -52 173.5t-157 54.5h-184v-463zM465 1639l193 272h286l-253 -272h-226z" />
    <glyph glyph-name="racute" unicode="&#x155;" horiz-adv-x="690" 
d="M111 0v1081h272l10 -182q25 72 60 119q29 37 65 56.5t84 19.5q41 0 88 -13l-20 -260q-57 10 -90 10q-44 0 -78.5 -21.5t-58.5 -60.5t-37 -94t-13 -123v-532h-282zM256 1272l193 272h286l-253 -272h-226z" />
    <glyph glyph-name="Rcedilla" unicode="&#x156;" horiz-adv-x="1219" 
d="M131 0v1544h541q220 0 330 -118t110 -351q0 -154 -58.5 -254.5t-158.5 -152.5l260 -668h-326l-215 614h-196v-614h-287zM418 848h184q100 0 154.5 55.5t54.5 179.5q0 119 -52 173.5t-157 54.5h-184v-463zM373 -393l176 272h194l-124 -272h-246z" />
    <glyph glyph-name="rcedilla" unicode="&#x157;" horiz-adv-x="690" 
d="M111 0v1081h272l10 -182q25 72 60 119q29 37 65 56.5t84 19.5q41 0 88 -13l-20 -260q-57 10 -90 10q-44 0 -78.5 -21.5t-58.5 -60.5t-37 -94t-13 -123v-532h-282zM112 -393l176 272h194l-124 -272h-246z" />
    <glyph glyph-name="Rcaron" unicode="&#x158;" horiz-adv-x="1219" 
d="M131 0v1544h541q220 0 330 -118t110 -351q0 -154 -58.5 -254.5t-158.5 -152.5l260 -668h-326l-215 614h-196v-614h-287zM418 848h184q100 0 154.5 55.5t54.5 179.5q0 119 -52 173.5t-157 54.5h-184v-463zM465 1639l-219 272h230l114 -123l117 123h229l-219 -272h-252z
" />
    <glyph glyph-name="rcaron" unicode="&#x159;" horiz-adv-x="690" 
d="M111 0v1081h272l10 -182q25 72 60 119q29 37 65 56.5t84 19.5q41 0 88 -13l-20 -260q-57 10 -90 10q-44 0 -78.5 -21.5t-58.5 -60.5t-37 -94t-13 -123v-532h-282zM329 1272l-219 272h230l114 -123l117 123h229l-219 -272h-252z" />
    <glyph glyph-name="Sacute" unicode="&#x15a;" horiz-adv-x="1174" 
d="M592 -31q-115 0 -204.5 24.5t-155.5 80t-110 144.5t-69 218l281 60q10 -72 27 -125t45.5 -87t72 -50.5t107.5 -16.5q77 0 126.5 31t65 78.5t15.5 89.5q0 56 -22 100.5t-63.5 74t-89.5 44.5l-167 51q-67 20 -131 48.5t-113.5 77.5t-80 124t-30.5 188q0 117 38.5 202
t103.5 140.5t152 82t185 26.5q155 0 260 -51.5t160.5 -149t81.5 -211.5l-268 -76q-16 78 -44.5 131t-77.5 82t-105 29q-105 0 -150 -50.5t-45 -137.5q0 -58 20 -100t61 -67t93 -40l209 -60q88 -24 146.5 -63.5t95.5 -93.5q75 -109 75 -285q0 -102 -30.5 -187t-92.5 -146.5
t-155 -95.5t-217 -34zM420 1639l193 272h286l-253 -272h-226z" />
    <glyph glyph-name="sacute" unicode="&#x15b;" horiz-adv-x="926" 
d="M455 -31q-178 0 -280 75.5t-134 223.5l248 64q11 -54 30.5 -87.5t50 -47t72.5 -13.5q71 0 100 30.5t29 80.5q0 38 -17.5 62.5t-46 39t-56.5 23.5l-121 41q-51 18 -98 42.5t-82.5 62t-56.5 89.5t-21 125q0 120 58.5 198.5t149 106t173.5 27.5q108 0 193 -31.5t140 -109.5
q29 -41 52 -111l-238 -78q-11 43 -31 70.5t-49 39t-59 11.5q-65 0 -92 -30t-27 -74q0 -35 31.5 -65t93.5 -50l127 -43q99 -35 155 -81t77.5 -112t21.5 -139q0 -117 -57.5 -197t-149.5 -111.5t-186 -31.5zM305 1272l193 272h286l-253 -272h-226z" />
    <glyph glyph-name="Scedilla" unicode="&#x15e;" horiz-adv-x="1174" 
d="M592 -31q-115 0 -204.5 24.5t-155.5 80t-110 144.5t-69 218l281 60q10 -72 27 -125t45.5 -87t72 -50.5t107.5 -16.5q77 0 126.5 31t65 78.5t15.5 89.5q0 56 -22 100.5t-63.5 74t-89.5 44.5l-167 51q-67 20 -131 48.5t-113.5 77.5t-80 124t-30.5 188q0 117 38.5 202
t103.5 140.5t152 82t185 26.5q155 0 260 -51.5t160.5 -149t81.5 -211.5l-268 -76q-16 78 -44.5 131t-77.5 82t-105 29q-105 0 -150 -50.5t-45 -137.5q0 -58 20 -100t61 -67t93 -40l209 -60q88 -24 146.5 -63.5t95.5 -93.5q75 -109 75 -285q0 -102 -30.5 -187t-92.5 -146.5
t-155 -95.5t-217 -34zM334 -393l176 272h194l-124 -272h-246z" />
    <glyph glyph-name="Scedilla" unicode="&#xf6c1;" horiz-adv-x="1174" 
d="M592 -31q-115 0 -204.5 24.5t-155.5 80t-110 144.5t-69 218l281 60q10 -72 27 -125t45.5 -87t72 -50.5t107.5 -16.5q77 0 126.5 31t65 78.5t15.5 89.5q0 56 -22 100.5t-63.5 74t-89.5 44.5l-167 51q-67 20 -131 48.5t-113.5 77.5t-80 124t-30.5 188q0 117 38.5 202
t103.5 140.5t152 82t185 26.5q155 0 260 -51.5t160.5 -149t81.5 -211.5l-268 -76q-16 78 -44.5 131t-77.5 82t-105 29q-105 0 -150 -50.5t-45 -137.5q0 -58 20 -100t61 -67t93 -40l209 -60q88 -24 146.5 -63.5t95.5 -93.5q75 -109 75 -285q0 -102 -30.5 -187t-92.5 -146.5
t-155 -95.5t-217 -34zM334 -393l176 272h194l-124 -272h-246z" />
    <glyph glyph-name="scedilla" unicode="&#x15f;" horiz-adv-x="926" 
d="M455 -31q-178 0 -280 75.5t-134 223.5l248 64q11 -54 30.5 -87.5t50 -47t72.5 -13.5q71 0 100 30.5t29 80.5q0 38 -17.5 62.5t-46 39t-56.5 23.5l-121 41q-51 18 -98 42.5t-82.5 62t-56.5 89.5t-21 125q0 120 58.5 198.5t149 106t173.5 27.5q108 0 193 -31.5t140 -109.5
q29 -41 52 -111l-238 -78q-11 43 -31 70.5t-49 39t-59 11.5q-65 0 -92 -30t-27 -74q0 -35 31.5 -65t93.5 -50l127 -43q99 -35 155 -81t77.5 -112t21.5 -139q0 -117 -57.5 -197t-149.5 -111.5t-186 -31.5zM198 -393l176 272h194l-124 -272h-246z" />
    <glyph glyph-name="scedilla" unicode="&#xf6c2;" horiz-adv-x="926" 
d="M455 -31q-178 0 -280 75.5t-134 223.5l248 64q11 -54 30.5 -87.5t50 -47t72.5 -13.5q71 0 100 30.5t29 80.5q0 38 -17.5 62.5t-46 39t-56.5 23.5l-121 41q-51 18 -98 42.5t-82.5 62t-56.5 89.5t-21 125q0 120 58.5 198.5t149 106t173.5 27.5q108 0 193 -31.5t140 -109.5
q29 -41 52 -111l-238 -78q-11 43 -31 70.5t-49 39t-59 11.5q-65 0 -92 -30t-27 -74q0 -35 31.5 -65t93.5 -50l127 -43q99 -35 155 -81t77.5 -112t21.5 -139q0 -117 -57.5 -197t-149.5 -111.5t-186 -31.5zM198 -393l176 272h194l-124 -272h-246z" />
    <glyph glyph-name="Tcedilla" unicode="&#x162;" horiz-adv-x="1118" 
d="M412 0v1298h-381v246h1056v-246h-380v-1298h-295zM279 -393l176 272h194l-124 -272h-246z" />
    <glyph glyph-name="tcedilla" unicode="&#x163;" horiz-adv-x="662" 
d="M406 -20q-69 0 -118 20t-79.5 58.5t-44.5 94t-14 126.5v577h-109v225h109v308h282v-308h174v-225h-174v-534q0 -56 20 -82.5t66 -26.5q55 0 90 10l21 -217q-42 -14 -102 -20t-121 -6zM153 -393l176 272h194l-124 -272h-246z" />
    <glyph glyph-name="Tcaron" unicode="&#x164;" horiz-adv-x="1118" 
d="M412 0v1298h-381v246h1056v-246h-380v-1298h-295zM436 1639l-219 272h230l114 -123l117 123h229l-219 -272h-252z" />
    <glyph glyph-name="tcaron" unicode="&#x165;" horiz-adv-x="662" 
d="M406 -20q-69 0 -118 20t-79.5 58.5t-44.5 94t-14 126.5v577h-109v225h109v308h282v-308h174v-225h-174v-534q0 -56 20 -82.5t66 -26.5q55 0 90 10l21 -217q-42 -14 -102 -20t-121 -6zM514 1169v375h203l-60 -375h-143z" />
    <glyph glyph-name="Umacron" unicode="&#x16a;" horiz-adv-x="1247" 
d="M625 -37q-134 0 -230 38.5t-158 111.5t-91 177.5t-29 235.5v1018h295v-1014q0 -83 12.5 -141.5t39 -96t66.5 -54.5t95 -17q109 0 160 72.5t51 236.5v1014h294v-1018q0 -131 -29 -235.5t-90 -177.5t-157 -111.5t-229 -38.5zM270 1678v194h700v-194h-700z" />
    <glyph glyph-name="umacron" unicode="&#x16b;" horiz-adv-x="1038" 
d="M401 -31q-66 0 -115.5 16.5t-92.5 59.5q-41 38 -61.5 105t-20.5 151v780h282v-696q0 -43 5.5 -75t19 -53t36 -31.5t56.5 -10.5q64 0 99.5 51.5t35.5 167.5v647h283v-1081h-258l-13 131q-29 -53 -70 -91t-90.5 -54.5t-95.5 -16.5zM166 1311v194h700v-194h-700z" />
    <glyph glyph-name="Uring" unicode="&#x16e;" horiz-adv-x="1247" 
d="M625 -37q-134 0 -230 38.5t-158 111.5t-91 177.5t-29 235.5v1018h295v-1014q0 -83 12.5 -141.5t39 -96t66.5 -54.5t95 -17q109 0 160 72.5t51 236.5v1014h294v-1018q0 -131 -29 -235.5t-90 -177.5t-157 -111.5t-229 -38.5zM623 1629q-53 0 -94.5 18.5t-70.5 50.5
t-44.5 75t-15.5 93q0 77 34.5 134t86 80.5t104.5 23.5q76 0 130.5 -38t75.5 -94t21 -106t-15.5 -93t-44.5 -75t-71 -50.5t-96 -18.5zM623 1743q38 0 62 20.5t32 49.5t8 53q0 39 -13.5 68t-37.5 42t-51 13q-39 0 -63.5 -21.5t-32 -49.5t-7.5 -52t6 -46t18.5 -39t32 -27.5
t46.5 -10.5z" />
    <glyph glyph-name="uring" unicode="&#x16f;" horiz-adv-x="1038" 
d="M401 -31q-66 0 -115.5 16.5t-92.5 59.5q-41 38 -61.5 105t-20.5 151v780h282v-696q0 -43 5.5 -75t19 -53t36 -31.5t56.5 -10.5q64 0 99.5 51.5t35.5 167.5v647h283v-1081h-258l-13 131q-29 -53 -70 -91t-90.5 -54.5t-95.5 -16.5zM512 1262q-53 0 -94.5 18.5t-70.5 50.5
t-44.5 75t-15.5 93q0 77 34.5 134t86 80.5t104.5 23.5q76 0 130.5 -38t75.5 -94t21 -106t-15.5 -93t-44.5 -75t-71 -50.5t-96 -18.5zM512 1376q38 0 62 20.5t32 49.5t8 53q0 39 -13.5 68t-37.5 42t-51 13q-39 0 -63.5 -21.5t-32 -49.5t-7.5 -52t6 -46t18.5 -39t32 -27.5
t46.5 -10.5z" />
    <glyph glyph-name="Udblacute" unicode="&#x170;" horiz-adv-x="1247" 
d="M625 -37q-134 0 -230 38.5t-158 111.5t-91 177.5t-29 235.5v1018h295v-1014q0 -83 12.5 -141.5t39 -96t66.5 -54.5t95 -17q109 0 160 72.5t51 236.5v1014h294v-1018q0 -131 -29 -235.5t-90 -177.5t-157 -111.5t-229 -38.5zM371 1639l127 272h225l-186 -272h-166z
M715 1639l127 272h225l-186 -272h-166z" />
    <glyph glyph-name="udblacute" unicode="&#x171;" horiz-adv-x="1038" 
d="M401 -31q-66 0 -115.5 16.5t-92.5 59.5q-41 38 -61.5 105t-20.5 151v780h282v-696q0 -43 5.5 -75t19 -53t36 -31.5t56.5 -10.5q64 0 99.5 51.5t35.5 167.5v647h283v-1081h-258l-13 131q-29 -53 -70 -91t-90.5 -54.5t-95.5 -16.5zM252 1272l127 272h225l-186 -272h-166z
M596 1272l127 272h225l-186 -272h-166z" />
    <glyph glyph-name="Uogonek" unicode="&#x172;" horiz-adv-x="1247" 
d="M696 -393q-60 0 -108.5 24.5t-68.5 68.5t-20 93q0 69 24 121q14 29 30 52q-89 8 -158 35q-96 39 -158 112t-91 177.5t-29 235.5v1018h295v-1014q0 -83 12.5 -141.5t39 -96t66.5 -54.5t95 -17q109 0 160 72.5t51 236.5v1014h294v-1018q0 -131 -29 -235.5t-90 -177.5
t-157 -112q-73 -28 -166 -35q-11 -17 -18 -33q-13 -33 -13 -76q0 -38 21.5 -61t58.5 -23t64 12.5t44 26.5l52 -144q-19 -15 -54 -30t-74.5 -23t-72.5 -8z" />
    <glyph glyph-name="uogonek" unicode="&#x173;" horiz-adv-x="1038" 
d="M401 -31q-66 0 -115.5 16.5t-92.5 59.5q-41 38 -61.5 105t-20.5 151v780h282v-696q0 -43 5.5 -75t19 -53t36 -31.5t56.5 -10.5q64 0 99.5 51.5t35.5 167.5v647h283v-1081h-258l-13 131q-29 -53 -70 -91t-90.5 -54.5t-95.5 -16.5zM834 -393q-60 0 -108.5 24.5t-68.5 68.5
t-20 93q0 69 24.5 121t59.5 86h133q-32 -35 -45.5 -67.5t-13.5 -75.5q0 -38 21.5 -61t58.5 -23t64 12.5t44 26.5l52 -144q-19 -15 -54 -30t-74.5 -23t-72.5 -8z" />
    <glyph glyph-name="Zacute" unicode="&#x179;" horiz-adv-x="1081" 
d="M53 0v238l637 1060h-588v246h902v-237l-635 -1061h659v-246h-975zM424 1639l193 272h286l-253 -272h-226z" />
    <glyph glyph-name="zacute" unicode="&#x17a;" horiz-adv-x="858" 
d="M53 0v203l436 653h-409v225h706v-202l-438 -656h457v-223h-752zM321 1272l193 272h286l-253 -272h-226z" />
    <glyph glyph-name="Zdot" unicode="&#x17b;" horiz-adv-x="1081" 
d="M53 0v238l637 1060h-588v246h902v-237l-635 -1061h659v-246h-975zM447 1639v272h217v-272h-217z" />
    <glyph glyph-name="zdot" unicode="&#x17c;" horiz-adv-x="858" 
d="M53 0v203l436 653h-409v225h706v-202l-438 -656h457v-223h-752zM323 1272v272h217v-272h-217z" />
    <glyph glyph-name="asendercaron" horiz-adv-x="942" 
d="M379 1169v375h203l-60 -375h-143z" />
    <glyph glyph-name="Amacron" unicode="&#x100;" horiz-adv-x="1192" 
d="M0 0l408 1544h378l406 -1544h-293l-82 328h-463l-80 -328h-274zM414 567h344l-172 695zM246 1678v194h700v-194h-700z" />
    <glyph glyph-name="dotlessextra" horiz-adv-x="504" 
d="M111 0v1081h282v-1081h-282z" />
    <glyph glyph-name="Eth" unicode="&#xd0;" horiz-adv-x="1251" 
d="M131 0v686h-115v199h115v659h416q157 0 272.5 -44t191 -137t112 -238t36.5 -347t-36.5 -348.5t-112 -242t-191 -141.5t-272.5 -46h-416zM426 242h137q115 0 183 77t91 203.5t23 255.5q0 127 -16.5 224.5t-51.5 164.5t-91 101.5t-134 34.5h-141v-418h236v-199h-236v-444z
" />
    <glyph glyph-name="Euro" unicode="&#x20ac;" horiz-adv-x="1350" 
d="M748 -31q-105 0 -191 32.5t-151 101.5t-107.5 177.5t-60.5 260.5h-148v155h137q-2 16 -2 31v33q0 26 1 50.5t1 47.5h-137v156h152q42 279 173.5 420t346.5 141q156 0 262.5 -65.5t159 -182.5t71.5 -248l-280 -59q-18 120 -54 190.5t-79.5 91.5t-83.5 21q-185 0 -232 -309
h267v-156h-281q-2 -25 -2 -51v-53v-58h283v-155h-273q11 -86 31.5 -147t50 -99.5t68 -56t84.5 -17.5q70 0 119 41.5t75 126.5t35 189l283 -37q-20 -149 -60.5 -256.5t-104 -178t-151.5 -104t-202 -33.5z" />
    <glyph glyph-name="eth" unicode="&#xf0;" horiz-adv-x="1042" 
d="M520 -31q-117 0 -201 38t-138 106.5t-79.5 164t-25.5 209.5q0 115 24 211.5t70.5 165.5t113.5 107.5t154 38.5q73 0 118.5 -13t74 -37.5t45.5 -48.5q-22 72 -53.5 144.5t-85.5 144.5l-150 -121l-84 117l141 111q-62 57 -133 110l107 160q56 -29 103.5 -62.5t90.5 -70.5
l144 119l86 -117l-131 -105q101 -121 160.5 -271t78 -295t17.5 -257q-1 -126 -27.5 -227.5t-81.5 -173t-139 -110t-199 -38.5zM520 203q77 0 119.5 67t42.5 217q0 154 -42.5 221.5t-119.5 67.5q-78 0 -120 -67.5t-42 -221.5q0 -150 42 -217t120 -67z" />
    <glyph glyph-name="Lslash" unicode="&#x141;" horiz-adv-x="1030" 
d="M131 0v526l-119 -112v235l119 113v782h295v-506l215 203v-235l-215 -203v-557h573v-246h-868z" />
    <glyph glyph-name="glyph314" horiz-adv-x="0" 
 />
    <glyph glyph-name="mu" unicode="&#xb5;" horiz-adv-x="1024" 
d="M393 4v-397h-282v1474h282v-696q0 -86 24.5 -128t92.5 -42q64 0 99.5 51.5t35.5 167.5v647h283v-1081h-240l-23 131q-22 -81 -62 -125t-109 -44q-30 0 -57 14t-44 28z" />
    </font>
</defs>
</svg>
